<?xml version="1.0" encoding="utf-8"?>
<svg version="1.1" xmlns:xlink="http://www.w3.org/1999/xlink" width="22px" height="22px" xmlns="http://www.w3.org/2000/svg">
  <g transform="matrix(1 0 0 1 -199 -138 )">
    <path d="M 210 138  C 216.16 138  221 142.84  221 149  C 221 155.16  216.16 160  210 160  C 203.84 160  199 155.16  199 149  C 199 142.84  203.84 138  210 138  Z " fill-rule="nonzero" fill="#f04844" stroke="none" />
    <path d="M 210 138.5  C 215.88 138.5  220.5 143.12  220.5 149  C 220.5 154.88  215.88 159.5  210 159.5  C 204.12 159.5  199.5 154.88  199.5 149  C 199.5 143.12  204.12 138.5  210 138.5  Z " stroke-width="1" stroke="#f04844" fill="none" />
  </g>
</svg>