<?xml version="1.0" encoding="utf-8"?>
<svg version="1.1" xmlns:xlink="http://www.w3.org/1999/xlink" width="28px" height="28px" xmlns="http://www.w3.org/2000/svg">
  <g transform="matrix(1 0 0 1 -165 -135 )">
    <path d="M 179 135  C 186.84 135  193 141.16  193 149  C 193 156.84  186.84 163  179 163  C 171.16 163  165 156.84  165 149  C 165 141.16  171.16 135  179 135  Z " fill-rule="nonzero" fill="#f04844" stroke="none" />
    <path d="M 179 135.5  C 186.56 135.5  192.5 141.44  192.5 149  C 192.5 156.56  186.56 162.5  179 162.5  C 171.44 162.5  165.5 156.56  165.5 149  C 165.5 141.44  171.44 135.5  179 135.5  Z " stroke-width="1" stroke="#f04844" fill="none" />
  </g>
</svg>