<?xml version="1.0" encoding="utf-8"?>
<svg version="1.1" xmlns:xlink="http://www.w3.org/1999/xlink" width="28px" height="28px" xmlns="http://www.w3.org/2000/svg">
  <g transform="matrix(1 0 0 1 -165 -95 )">
    <path d="M 179 95  C 186.84 95  193 101.16  193 109  C 193 116.84  186.84 123  179 123  C 171.16 123  165 116.84  165 109  C 165 101.16  171.16 95  179 95  Z " fill-rule="nonzero" fill="#f04844" stroke="none" />
    <path d="M 179 95.5  C 186.56 95.5  192.5 101.44  192.5 109  C 192.5 116.56  186.56 122.5  179 122.5  C 171.44 122.5  165.5 116.56  165.5 109  C 165.5 101.44  171.44 95.5  179 95.5  Z " stroke-width="1" stroke="#f04844" fill="none" />
  </g>
</svg>