<?xml version="1.0" encoding="utf-8"?>
<svg version="1.1" xmlns:xlink="http://www.w3.org/1999/xlink" width="28px" height="28px" xmlns="http://www.w3.org/2000/svg">
  <g transform="matrix(1 0 0 1 -193 -95 )">
    <path d="M 207 95  C 214.84 95  221 101.16  221 109  C 221 116.84  214.84 123  207 123  C 199.16 123  193 116.84  193 109  C 193 101.16  199.16 95  207 95  Z " fill-rule="nonzero" fill="#1abc9c" stroke="none" />
    <path d="M 207 95.5  C 214.56 95.5  220.5 101.44  220.5 109  C 220.5 116.56  214.56 122.5  207 122.5  C 199.44 122.5  193.5 116.56  193.5 109  C 193.5 101.44  199.44 95.5  207 95.5  Z " stroke-width="1" stroke="#1abc9c" fill="none" />
  </g>
</svg>