<?xml version="1.0" encoding="utf-8"?>
<svg version="1.1" xmlns:xlink="http://www.w3.org/1999/xlink" width="11px" height="11px" xmlns="http://www.w3.org/2000/svg">
  <g transform="matrix(1 0 0 1 -45 -215 )">
    <path d="M 50.5 215  C 53.58 215  56 217.42  56 220.5  C 56 223.58  53.58 226  50.5 226  C 47.42 226  45 223.58  45 220.5  C 45 217.42  47.42 215  50.5 215  Z " fill-rule="nonzero" fill="#3399ff" stroke="none" />
    <path d="M 50.5 215.5  C 53.3 215.5  55.5 217.7  55.5 220.5  C 55.5 223.3  53.3 225.5  50.5 225.5  C 47.7 225.5  45.5 223.3  45.5 220.5  C 45.5 217.7  47.7 215.5  50.5 215.5  Z " stroke-width="1" stroke="#3399ff" fill="none" />
  </g>
</svg>