<?xml version="1.0" encoding="utf-8"?>
<svg version="1.1" xmlns:xlink="http://www.w3.org/1999/xlink" width="11px" height="11px" xmlns="http://www.w3.org/2000/svg">
  <g transform="matrix(1 0 0 1 -45 -192 )">
    <path d="M 50.5 192  C 53.58 192  56 194.42  56 197.5  C 56 200.58  53.58 203  50.5 203  C 47.42 203  45 200.58  45 197.5  C 45 194.42  47.42 192  50.5 192  Z " fill-rule="nonzero" fill="#81d3f8" stroke="none" />
    <path d="M 50.5 192.5  C 53.3 192.5  55.5 194.7  55.5 197.5  C 55.5 200.3  53.3 202.5  50.5 202.5  C 47.7 202.5  45.5 200.3  45.5 197.5  C 45.5 194.7  47.7 192.5  50.5 192.5  Z " stroke-width="1" stroke="#81d3f8" fill="none" />
  </g>
</svg>