<?xml version="1.0" encoding="utf-8"?>
<svg version="1.1" xmlns:xlink="http://www.w3.org/1999/xlink" width="24px" height="26px" xmlns="http://www.w3.org/2000/svg">
  <g transform="matrix(1 0 0 1 -483 -182 )">
    <path d="M 24 13.8124966277492  C 24 13.1394223386196  23.4963159418395 12.5937651751287  22.8749910505559 12.5937651751287  C 22.253666159272 12.5937651751287  21.7499821011115 13.1394223386196  21.7499821011115 13.8125236057559  L 21.7499821011115 23.5625101167525  L 2.24999299608699 23.5625101167525  L 2.24999299608699 2.4375168612542  L 11.2499898832369 2.4375168612542  C 11.8713147745206 2.4375168612542  12.3749988326813 1.89185969776328  12.3749988326813 1.21875843062707  C 12.3749988326813 0.545657163490847  11.8713147745206 0  11.2499898832369 0  L 1.41176470588236 0  C 0.632107804226699 2.69780066673775E-05  0 0.529200579404608  0 1.18185251746301  L 0 24.8181744605436  C 0 25.4708263986021  0.632107804226699 26  1.41176470588236 26  L 22.5882352941176 26  C 23.3678921957733 26  24 25.4708263986021  24 24.8181744605436  L 24 13.8124966277492  Z " fill-rule="nonzero" fill="#1abc9c" stroke="none" transform="matrix(1 0 0 1 483 182 )" />
  </g>
</svg>