<?xml version="1.0" encoding="utf-8"?>
<svg version="1.1" xmlns:xlink="http://www.w3.org/1999/xlink" width="62px" height="62px" xmlns="http://www.w3.org/2000/svg">
  <g transform="matrix(1 0 0 1 -269 -86 )">
    <path d="M 300 86  C 317.36 86  331 99.64  331 117  C 331 134.36  317.36 148  300 148  C 282.64 148  269 134.36  269 117  C 269 99.64  282.64 86  300 86  Z " fill-rule="nonzero" fill="#ffffff" stroke="none" />
    <path d="M 300 86.5  C 317.08 86.5  330.5 99.92  330.5 117  C 330.5 134.08  317.08 147.5  300 147.5  C 282.92 147.5  269.5 134.08  269.5 117  C 269.5 99.92  282.92 86.5  300 86.5  Z " stroke-width="1" stroke="#aaaaaa" fill="none" />
  </g>
</svg>