<?xml version="1.0" encoding="utf-8"?>
<svg version="1.1" xmlns:xlink="http://www.w3.org/1999/xlink" width="19px" height="19px" xmlns="http://www.w3.org/2000/svg">
  <g transform="matrix(1 0 0 1 -430 -234 )">
    <path d="M 18.4002931637888 4.15584051605157  C 19.1997526323996 3.35679346843149  19.1999710109118 2.05593681916448  18.4005358065801 1.25606478597995  L 17.7452304202508 0.600977719336024  C 17.3579967896949 0.21333156122425  16.8431330509414 0  16.2952456282984 0  C 15.7465089558865 0.000218378531741336  15.2312327243876 0.213962432538177  14.8438049795988 0.602021083432136  L 1.79035073871709 13.6793768135991  C 1.71074120757616 13.7589865237296  1.64832290258088 13.8540922745731  1.60696131709018 13.9588042770952  L 0.058051059145285 17.8697211376649  C -0.0629791651303435 18.1755724035012  0.00869751540497532 18.5239832187445  0.24080960951477 18.7567262050119  C 0.395791827142205 18.9125511849899  0.606532019147899 19.0001136116283  0.826306664801358 18.9999998893652  C 0.92751297303181 18.9999998893652  1.02952000247318 18.9814134498864  1.12740210446354 18.9430030925822  L 5.05093603897771 17.4069042360735  C 5.15696932717161 17.3653459643619  5.2532852076201 17.3023523991596  5.33385753357523 17.2218648268496  L 18.4002931637888 4.15584051605157  Z M 4.21122213129848 15.9612383559845  L 2.29344630209506 16.7121450694977  L 3.05056460363269 14.8005807240917  L 4.21122213129848 15.9612383559845  Z M 17.2320166524778 2.42417155223311  C 17.3873323031571 2.57946295257831  17.3873323031571 2.83224823520284  17.2320166524778 2.98753963554804  L 5.82496654306543 14.3941540122507  L 4.6170179353851 13.1862052960964  L 16.0131248549121 1.76927859983969  C 16.1147436558877 1.66724729695659  16.2332746594132 1.65217917826678  16.2950272497866 1.65217917826678  C 16.3565614616476 1.65217917826678  16.4751167294523 1.66724729695659  16.5769296446607 1.76908448558924  L 17.2320166524778 2.42417155223311  Z " fill-rule="nonzero" fill="#1abc9c" stroke="none" transform="matrix(1 0 0 1 430 234 )" />
  </g>
</svg>