<?xml version="1.0" encoding="utf-8"?>
<svg version="1.1" xmlns:xlink="http://www.w3.org/1999/xlink" width="17px" height="17px" xmlns="http://www.w3.org/2000/svg">
  <g transform="matrix(1 0 0 1 -115 -357 )">
    <path d="M 16.9999999762704 17  C 17.0002348188674 13.8626618184698  15.2573476791306 10.9825744245547  12.4713612385517 9.51651180232558  C 11.410227120883 10.4436375346459  10.0237109224474 11.0057150707209  8.50000004456842 11.0057150707209  C 6.9762891666894 11.0057150707209  5.58855883593968 10.4436375346459  4.52742471827091 9.51651180232558  C 1.74190837778186 10.9829002273195  -0.00047261238700118 13.8629233451206  0 17  L 16.9999999762704 17  Z M 3.54277966671553 5.01263893029598  C 3.54277934776365 7.73877829009418  5.76181009379379 9.94912513057914  8.50000004456841 9.95045983222679  C 11.2373232722089 9.94979268830605  13.4560068848908 7.7403328120713  13.4560068848908 5.01505660598629  C 13.4560068848908 5.01425071405166  13.4560066866295 5.01344482213394  13.4560062901071 5.01263893029598  C 13.4564109835459 4.98689571542269  13.4566133395579 4.96114974183336  13.4566133395579 4.93540337412092  C 13.4566133395579 2.20965535633049  11.2371901854233 0  8.49939297841132 0  C 5.76159577139938 0  3.54217261726476 2.20965535633049  3.54217261726476 4.93540337412092  C 3.54217261726476 4.96114974183336  3.54237497327669 4.98689571542269  3.54277966671553 5.01263893029598  Z " fill-rule="nonzero" fill="#cccccc" stroke="none" transform="matrix(1 0 0 1 115 357 )" />
  </g>
</svg>