<?xml version="1.0" encoding="utf-8"?>
<svg version="1.1" xmlns:xlink="http://www.w3.org/1999/xlink" width="13px" height="17px" xmlns="http://www.w3.org/2000/svg">
  <g transform="matrix(1 0 0 1 -114 -406 )">
    <path d="M 9.7509887496201 7.08236367977469  L 3.2509887496201 7.08236367977469  L 3.2509887496201 4.96657540437489  C 3.25692120869091 4.37508555543732  3.44873745617158 1.41763632970122  6.50197749924021 1.41763632970122  C 9.55521754230885 1.41763632970122  9.7450562905493 4.37508555543732  9.75296624886032 4.95687886562994  L 9.7509887496201 7.08236367977469  Z M 7.79920900030391 11.3313940041056  C 7.80118649954413 11.8530686641589  7.53818070456399 12.304928116376  7.15059324977207 12.5512206098575  L 7.15059324977207 14.872575843993  L 5.85138424946815 14.872575843993  L 5.85138424946815 12.5512206098575  C 5.46379677535131 12.304928116376  5.20079099969608 11.8530686641589  5.20079099969608 11.3313940041056  C 5.20079099969608 10.5479123620464  5.78217220120888 9.91375767440436  6.5 9.91375767440436  C 7.21782779879111 9.91375767440436  7.79920900030391 10.5479123620464  7.79920900030391 11.3313940041056  Z M 13 7.08236367977469  L 11.050197749924 7.08236367977469  L 11.050197749924 4.95687884667809  C 11.050197749924 4.95687884667809  11.050197749924 0  6.5 0  C 1.94980225007598 0  1.94980225007598 4.95687884667809  1.94980225007598 4.95687884667809  L 1.94980225007598 7.08236367977469  L 0 7.08236367977469  L 0 17  L 13 17  L 13 7.08236367977469  Z " fill-rule="nonzero" fill="#cccccc" stroke="none" transform="matrix(1 0 0 1 114 406 )" />
  </g>
</svg>