<?xml version="1.0" encoding="utf-8"?>
<svg version="1.1" xmlns:xlink="http://www.w3.org/1999/xlink" width="127px" height="35px" xmlns="http://www.w3.org/2000/svg">
  <g transform="matrix(1 0 0 1 -105 -182 )">
    <path d="M 106.5 185  A 1.5 1.5 0 0 1 108 183.5 L 229 183.5  A 1.5 1.5 0 0 1 230.5 185 L 230.5 214  A 1.5 1.5 0 0 1 229 215.5 L 108 215.5  A 1.5 1.5 0 0 1 106.5 214 L 106.5 185  Z " fill-rule="nonzero" fill="#ffffff" stroke="none" fill-opacity="0" />
    <path d="M 106 185  A 2 2 0 0 1 108 183 L 229 183  A 2 2 0 0 1 231 185 L 231 214  A 2 2 0 0 1 229 216 L 108 216  A 2 2 0 0 1 106 214 L 106 185  Z " stroke-width="2" stroke="#1abc9c" fill="none" />
  </g>
</svg>