<?xml version="1.0" encoding="utf-8"?>
<svg version="1.1" xmlns:xlink="http://www.w3.org/1999/xlink" width="308px" height="35px" xmlns="http://www.w3.org/2000/svg">
  <g transform="matrix(1 0 0 1 -82 -171 )">
    <path d="M 83 174  A 2 2 0 0 1 85 172 L 387 172  A 2 2 0 0 1 389 174 L 389 203  A 2 2 0 0 1 387 205 L 85 205  A 2 2 0 0 1 83 203 L 83 174  Z " fill-rule="nonzero" fill="#ffffff" stroke="none" fill-opacity="0.498039215686275" />
    <path d="M 82.5 174  A 2.5 2.5 0 0 1 85 171.5 L 387 171.5  A 2.5 2.5 0 0 1 389.5 174 L 389.5 203  A 2.5 2.5 0 0 1 387 205.5 L 85 205.5  A 2.5 2.5 0 0 1 82.5 203 L 82.5 174  Z " stroke-width="1" stroke="#cccccc" fill="none" stroke-opacity="0.698039215686274" />
  </g>
</svg>