<?xml version="1.0" encoding="utf-8"?>
<svg version="1.1" xmlns:xlink="http://www.w3.org/1999/xlink" width="98px" height="35px" xmlns="http://www.w3.org/2000/svg">
  <g transform="matrix(1 0 0 1 -82 -264 )">
    <path d="M 83.5 267  A 1.5 1.5 0 0 1 85 265.5 L 177 265.5  A 1.5 1.5 0 0 1 178.5 267 L 178.5 296  A 1.5 1.5 0 0 1 177 297.5 L 85 297.5  A 1.5 1.5 0 0 1 83.5 296 L 83.5 267  Z " fill-rule="nonzero" fill="#ffffff" stroke="none" fill-opacity="0" />
    <path d="M 83 267  A 2 2 0 0 1 85 265 L 177 265  A 2 2 0 0 1 179 267 L 179 296  A 2 2 0 0 1 177 298 L 85 298  A 2 2 0 0 1 83 296 L 83 267  Z " stroke-width="2" stroke="#1abc9c" fill="none" />
  </g>
</svg>