<?xml version="1.0" encoding="utf-8"?>
<svg version="1.1" xmlns:xlink="http://www.w3.org/1999/xlink" width="127px" height="35px" xmlns="http://www.w3.org/2000/svg">
  <g transform="matrix(1 0 0 1 -105 -230 )">
    <path d="M 106.5 233  A 1.5 1.5 0 0 1 108 231.5 L 229 231.5  A 1.5 1.5 0 0 1 230.5 233 L 230.5 262  A 1.5 1.5 0 0 1 229 263.5 L 108 263.5  A 1.5 1.5 0 0 1 106.5 262 L 106.5 233  Z " fill-rule="nonzero" fill="#ffffff" stroke="none" fill-opacity="0" />
    <path d="M 106 233  A 2 2 0 0 1 108 231 L 229 231  A 2 2 0 0 1 231 233 L 231 262  A 2 2 0 0 1 229 264 L 108 264  A 2 2 0 0 1 106 262 L 106 233  Z " stroke-width="2" stroke="#1abc9c" fill="none" />
  </g>
</svg>