<?xml version="1.0" encoding="utf-8"?>
<svg version="1.1" xmlns:xlink="http://www.w3.org/1999/xlink" width="308px" height="35px" xmlns="http://www.w3.org/2000/svg">
  <g transform="matrix(1 0 0 1 -82 -256 )">
    <path d="M 83 259  A 2 2 0 0 1 85 257 L 387 257  A 2 2 0 0 1 389 259 L 389 288  A 2 2 0 0 1 387 290 L 85 290  A 2 2 0 0 1 83 288 L 83 259  Z " fill-rule="nonzero" fill="#ffffff" stroke="none" fill-opacity="0.498039215686275" />
    <path d="M 82.5 259  A 2.5 2.5 0 0 1 85 256.5 L 387 256.5  A 2.5 2.5 0 0 1 389.5 259 L 389.5 288  A 2.5 2.5 0 0 1 387 290.5 L 85 290.5  A 2.5 2.5 0 0 1 82.5 288 L 82.5 259  Z " stroke-width="1" stroke="#cccccc" fill="none" stroke-opacity="0.698039215686274" />
  </g>
</svg>