<?xml version="1.0" encoding="utf-8"?>
<svg version="1.1" xmlns:xlink="http://www.w3.org/1999/xlink" width="127px" height="35px" xmlns="http://www.w3.org/2000/svg">
  <g transform="matrix(1 0 0 1 -105 -230 )">
    <path d="M 106 233  A 2 2 0 0 1 108 231 L 229 231  A 2 2 0 0 1 231 233 L 231 262  A 2 2 0 0 1 229 264 L 108 264  A 2 2 0 0 1 106 262 L 106 233  Z " fill-rule="nonzero" fill="#ffffff" stroke="none" fill-opacity="0.498039215686275" />
    <path d="M 105.5 233  A 2.5 2.5 0 0 1 108 230.5 L 229 230.5  A 2.5 2.5 0 0 1 231.5 233 L 231.5 262  A 2.5 2.5 0 0 1 229 264.5 L 108 264.5  A 2.5 2.5 0 0 1 105.5 262 L 105.5 233  Z " stroke-width="1" stroke="#cccccc" fill="none" stroke-opacity="0.698039215686274" />
  </g>
</svg>