<?xml version="1.0" encoding="utf-8"?>
<svg version="1.1" xmlns:xlink="http://www.w3.org/1999/xlink" width="98px" height="35px" xmlns="http://www.w3.org/2000/svg">
  <g transform="matrix(1 0 0 1 -82 -349 )">
    <path d="M 83 352  A 2 2 0 0 1 85 350 L 177 350  A 2 2 0 0 1 179 352 L 179 381  A 2 2 0 0 1 177 383 L 85 383  A 2 2 0 0 1 83 381 L 83 352  Z " fill-rule="nonzero" fill="#ffffff" stroke="none" fill-opacity="0.498039215686275" />
    <path d="M 82.5 352  A 2.5 2.5 0 0 1 85 349.5 L 177 349.5  A 2.5 2.5 0 0 1 179.5 352 L 179.5 381  A 2.5 2.5 0 0 1 177 383.5 L 85 383.5  A 2.5 2.5 0 0 1 82.5 381 L 82.5 352  Z " stroke-width="1" stroke="#cccccc" fill="none" stroke-opacity="0.698039215686274" />
  </g>
</svg>