<?xml version="1.0" encoding="utf-8"?>
<svg version="1.1" xmlns:xlink="http://www.w3.org/1999/xlink" width="209px" height="35px" xmlns="http://www.w3.org/2000/svg">
  <g transform="matrix(1 0 0 1 -105 -397 )">
    <path d="M 106 400  A 2 2 0 0 1 108 398 L 311 398  A 2 2 0 0 1 313 400 L 313 429  A 2 2 0 0 1 311 431 L 108 431  A 2 2 0 0 1 106 429 L 106 400  Z " fill-rule="nonzero" fill="#ffffff" stroke="none" fill-opacity="0.498039215686275" />
    <path d="M 105.5 400  A 2.5 2.5 0 0 1 108 397.5 L 311 397.5  A 2.5 2.5 0 0 1 313.5 400 L 313.5 429  A 2.5 2.5 0 0 1 311 431.5 L 108 431.5  A 2.5 2.5 0 0 1 105.5 429 L 105.5 400  Z " stroke-width="1" stroke="#cccccc" fill="none" stroke-opacity="0.698039215686274" />
  </g>
</svg>