<?xml version="1.0" encoding="utf-8"?>
<svg version="1.1" xmlns:xlink="http://www.w3.org/1999/xlink" width="127px" height="35px" xmlns="http://www.w3.org/2000/svg">
  <g transform="matrix(1 0 0 1 -105 -182 )">
    <path d="M 106 185  A 2 2 0 0 1 108 183 L 229 183  A 2 2 0 0 1 231 185 L 231 214  A 2 2 0 0 1 229 216 L 108 216  A 2 2 0 0 1 106 214 L 106 185  Z " fill-rule="nonzero" fill="#ffffff" stroke="none" fill-opacity="0.498039215686275" />
    <path d="M 105.5 185  A 2.5 2.5 0 0 1 108 182.5 L 229 182.5  A 2.5 2.5 0 0 1 231.5 185 L 231.5 214  A 2.5 2.5 0 0 1 229 216.5 L 108 216.5  A 2.5 2.5 0 0 1 105.5 214 L 105.5 185  Z " stroke-width="1" stroke="#cccccc" fill="none" stroke-opacity="0.698039215686274" />
  </g>
</svg>