<?xml version="1.0" encoding="utf-8"?>
<svg version="1.1" xmlns:xlink="http://www.w3.org/1999/xlink" width="209px" height="35px" xmlns="http://www.w3.org/2000/svg">
  <g transform="matrix(1 0 0 1 -105 -397 )">
    <path d="M 106.5 400  A 1.5 1.5 0 0 1 108 398.5 L 311 398.5  A 1.5 1.5 0 0 1 312.5 400 L 312.5 429  A 1.5 1.5 0 0 1 311 430.5 L 108 430.5  A 1.5 1.5 0 0 1 106.5 429 L 106.5 400  Z " fill-rule="nonzero" fill="#ffffff" stroke="none" fill-opacity="0" />
    <path d="M 106 400  A 2 2 0 0 1 108 398 L 311 398  A 2 2 0 0 1 313 400 L 313 429  A 2 2 0 0 1 311 431 L 108 431  A 2 2 0 0 1 106 429 L 106 400  Z " stroke-width="2" stroke="#1abc9c" fill="none" />
  </g>
</svg>