<?xml version="1.0" encoding="utf-8"?>
<svg version="1.1" xmlns:xlink="http://www.w3.org/1999/xlink" width="98px" height="35px" xmlns="http://www.w3.org/2000/svg">
  <g transform="matrix(1 0 0 1 -82 -264 )">
    <path d="M 83 267  A 2 2 0 0 1 85 265 L 177 265  A 2 2 0 0 1 179 267 L 179 296  A 2 2 0 0 1 177 298 L 85 298  A 2 2 0 0 1 83 296 L 83 267  Z " fill-rule="nonzero" fill="#ffffff" stroke="none" fill-opacity="0.498039215686275" />
    <path d="M 82.5 267  A 2.5 2.5 0 0 1 85 264.5 L 177 264.5  A 2.5 2.5 0 0 1 179.5 267 L 179.5 296  A 2.5 2.5 0 0 1 177 298.5 L 85 298.5  A 2.5 2.5 0 0 1 82.5 296 L 82.5 267  Z " stroke-width="1" stroke="#cccccc" fill="none" stroke-opacity="0.698039215686274" />
  </g>
</svg>