<?xml version="1.0" encoding="utf-8"?>
<svg version="1.1" xmlns:xlink="http://www.w3.org/1999/xlink" width="300px" height="50px" xmlns="http://www.w3.org/2000/svg">
  <g transform="matrix(1 0 0 1 -60 -364 )">
    <path d="M 61.5 367  A 1.5 1.5 0 0 1 63 365.5 L 357 365.5  A 1.5 1.5 0 0 1 358.5 367 L 358.5 411  A 1.5 1.5 0 0 1 357 412.5 L 63 412.5  A 1.5 1.5 0 0 1 61.5 411 L 61.5 367  Z " fill-rule="nonzero" fill="#ffffff" stroke="none" fill-opacity="0" />
    <path d="M 61 367  A 2 2 0 0 1 63 365 L 357 365  A 2 2 0 0 1 359 367 L 359 411  A 2 2 0 0 1 357 413 L 63 413  A 2 2 0 0 1 61 411 L 61 367  Z " stroke-width="2" stroke="#1abc9c" fill="none" />
  </g>
</svg>