<?xml version="1.0" encoding="utf-8"?>
<svg version="1.1" xmlns:xlink="http://www.w3.org/1999/xlink" width="12px" height="12px" viewBox="303 234  12 12" xmlns="http://www.w3.org/2000/svg">
  <path d="M 309 234  C 312.36 234  315 236.64  315 240  C 315 243.36  312.36 246  309 246  C 305.64 246  303 243.36  303 240  C 303 236.64  305.64 234  309 234  Z " fill-rule="nonzero" fill="#ffffff" stroke="none" />
  <path d="M 309 234.5  C 312.08 234.5  314.5 236.92  314.5 240  C 314.5 243.08  312.08 245.5  309 245.5  C 305.92 245.5  303.5 243.08  303.5 240  C 303.5 236.92  305.92 234.5  309 234.5  Z " stroke-width="1" stroke="#797979" fill="none" />
  <path d="M 309 243  C 307.32 243  306 241.68  306 240  C 306 238.32  307.32 237  309 237  C 310.68 237  312 238.32  312 240  C 312 241.68  310.68 243  309 243  " fill-rule="nonzero" fill="#797979" stroke="none" />
</svg>