<?xml version="1.0" encoding="utf-8"?>
<svg version="1.1" xmlns:xlink="http://www.w3.org/1999/xlink" width="12px" height="12px" viewBox="148 334  12 12" xmlns="http://www.w3.org/2000/svg">
  <path d="M 154 334  C 157.36 334  160 336.64  160 340  C 160 343.36  157.36 346  154 346  C 150.64 346  148 343.36  148 340  C 148 336.64  150.64 334  154 334  Z " fill-rule="nonzero" fill="#ffffff" stroke="none" />
  <path d="M 154 334.5  C 157.08 334.5  159.5 336.92  159.5 340  C 159.5 343.08  157.08 345.5  154 345.5  C 150.92 345.5  148.5 343.08  148.5 340  C 148.5 336.92  150.92 334.5  154 334.5  Z " stroke-width="1" stroke="#797979" fill="none" />
  <path d="M 154 343  C 152.32 343  151 341.68  151 340  C 151 338.32  152.32 337  154 337  C 155.68 337  157 338.32  157 340  C 157 341.68  155.68 343  154 343  " fill-rule="nonzero" fill="#797979" stroke="none" />
</svg>