<?xml version="1.0" encoding="utf-8"?>
<svg version="1.1" xmlns:xlink="http://www.w3.org/1999/xlink" width="12px" height="12px" viewBox="169 174  12 12" xmlns="http://www.w3.org/2000/svg">
  <path d="M 175 174  C 178.36 174  181 176.64  181 180  C 181 183.36  178.36 186  175 186  C 171.64 186  169 183.36  169 180  C 169 176.64  171.64 174  175 174  Z " fill-rule="nonzero" fill="#ffffff" stroke="none" />
  <path d="M 175 174.5  C 178.08 174.5  180.5 176.92  180.5 180  C 180.5 183.08  178.08 185.5  175 185.5  C 171.92 185.5  169.5 183.08  169.5 180  C 169.5 176.92  171.92 174.5  175 174.5  Z " stroke-width="1" stroke="#797979" fill="none" />
  <path d="M 175 183  C 173.32 183  172 181.68  172 180  C 172 178.32  173.32 177  175 177  C 176.68 177  178 178.32  178 180  C 178 181.68  176.68 183  175 183  " fill-rule="nonzero" fill="#797979" stroke="none" />
</svg>