<?xml version="1.0" encoding="utf-8"?>
<svg version="1.1" xmlns:xlink="http://www.w3.org/1999/xlink" width="12px" height="12px" viewBox="169 228  12 12" xmlns="http://www.w3.org/2000/svg">
  <path d="M 175 228  C 178.36 228  181 230.64  181 234  C 181 237.36  178.36 240  175 240  C 171.64 240  169 237.36  169 234  C 169 230.64  171.64 228  175 228  Z " fill-rule="nonzero" fill="#ffffff" stroke="none" />
  <path d="M 175 228.5  C 178.08 228.5  180.5 230.92  180.5 234  C 180.5 237.08  178.08 239.5  175 239.5  C 171.92 239.5  169.5 237.08  169.5 234  C 169.5 230.92  171.92 228.5  175 228.5  Z " stroke-width="1" stroke="#797979" fill="none" />
  <path d="M 175 237  C 173.32 237  172 235.68  172 234  C 172 232.32  173.32 231  175 231  C 176.68 231  178 232.32  178 234  C 178 235.68  176.68 237  175 237  " fill-rule="nonzero" fill="#797979" stroke="none" />
</svg>