<?xml version="1.0" encoding="utf-8"?>
<svg version="1.1" xmlns:xlink="http://www.w3.org/1999/xlink" width="34px" height="34px" xmlns="http://www.w3.org/2000/svg">
  <g transform="matrix(1 0 0 1 -196 -78 )">
    <path d="M 213 81  C 220.84 81  227 87.16  227 95  C 227 102.84  220.84 109  213 109  C 205.16 109  199 102.84  199 95  C 199 87.16  205.16 81  213 81  Z " fill-rule="nonzero" fill="#f9f9f9" stroke="none" />
    <path d="M 213 80  C 221.4 80  228 86.6  228 95  C 228 103.4  221.4 110  213 110  C 204.6 110  198 103.4  198 95  C 198 86.6  204.6 80  213 80  Z " stroke-width="4" stroke="#1abc9c" fill="none" />
  </g>
</svg>