<?xml version="1.0" encoding="utf-8"?>
<svg version="1.1" xmlns:xlink="http://www.w3.org/1999/xlink" width="12px" height="12px" viewBox="208 334  12 12" xmlns="http://www.w3.org/2000/svg">
  <path d="M 214 334  C 217.36 334  220 336.64  220 340  C 220 343.36  217.36 346  214 346  C 210.64 346  208 343.36  208 340  C 208 336.64  210.64 334  214 334  Z " fill-rule="nonzero" fill="#ffffff" stroke="none" />
  <path d="M 214 334.5  C 217.08 334.5  219.5 336.92  219.5 340  C 219.5 343.08  217.08 345.5  214 345.5  C 210.92 345.5  208.5 343.08  208.5 340  C 208.5 336.92  210.92 334.5  214 334.5  Z " stroke-width="1" stroke="#797979" fill="none" />
  <path d="M 214 343  C 212.32 343  211 341.68  211 340  C 211 338.32  212.32 337  214 337  C 215.68 337  217 338.32  217 340  C 217 341.68  215.68 343  214 343  " fill-rule="nonzero" fill="#797979" stroke="none" />
</svg>