<?xml version="1.0" encoding="utf-8"?>
<svg version="1.1" xmlns:xlink="http://www.w3.org/1999/xlink" width="34px" height="34px" xmlns="http://www.w3.org/2000/svg">
  <g transform="matrix(1 0 0 1 -380 -78 )">
    <path d="M 397 81  C 404.84 81  411 87.16  411 95  C 411 102.84  404.84 109  397 109  C 389.16 109  383 102.84  383 95  C 383 87.16  389.16 81  397 81  Z " fill-rule="nonzero" fill="#f9f9f9" stroke="none" />
    <path d="M 397 80  C 405.4 80  412 86.6  412 95  C 412 103.4  405.4 110  397 110  C 388.6 110  382 103.4  382 95  C 382 86.6  388.6 80  397 80  Z " stroke-width="4" stroke="#cccccc" fill="none" />
  </g>
</svg>