<?xml version="1.0" encoding="utf-8"?>
<svg version="1.1" xmlns:xlink="http://www.w3.org/1999/xlink" width="12px" height="12px" viewBox="302 286  12 12" xmlns="http://www.w3.org/2000/svg">
  <path d="M 308 286  C 311.36 286  314 288.64  314 292  C 314 295.36  311.36 298  308 298  C 304.64 298  302 295.36  302 292  C 302 288.64  304.64 286  308 286  Z " fill-rule="nonzero" fill="#ffffff" stroke="none" />
  <path d="M 308 286.5  C 311.08 286.5  313.5 288.92  313.5 292  C 313.5 295.08  311.08 297.5  308 297.5  C 304.92 297.5  302.5 295.08  302.5 292  C 302.5 288.92  304.92 286.5  308 286.5  Z " stroke-width="1" stroke="#797979" fill="none" />
  <path d="M 308 295  C 306.32 295  305 293.68  305 292  C 305 290.32  306.32 289  308 289  C 309.68 289  311 290.32  311 292  C 311 293.68  309.68 295  308 295  " fill-rule="nonzero" fill="#797979" stroke="none" />
</svg>