<?xml version="1.0" encoding="utf-8"?>
<svg version="1.1" xmlns:xlink="http://www.w3.org/1999/xlink" width="12px" height="12px" viewBox="169 286  12 12" xmlns="http://www.w3.org/2000/svg">
  <path d="M 175 286  C 178.36 286  181 288.64  181 292  C 181 295.36  178.36 298  175 298  C 171.64 298  169 295.36  169 292  C 169 288.64  171.64 286  175 286  Z " fill-rule="nonzero" fill="#ffffff" stroke="none" />
  <path d="M 175 286.5  C 178.08 286.5  180.5 288.92  180.5 292  C 180.5 295.08  178.08 297.5  175 297.5  C 171.92 297.5  169.5 295.08  169.5 292  C 169.5 288.92  171.92 286.5  175 286.5  Z " stroke-width="1" stroke="#797979" fill="none" />
  <path d="M 175 295  C 173.32 295  172 293.68  172 292  C 172 290.32  173.32 289  175 289  C 176.68 289  178 290.32  178 292  C 178 293.68  176.68 295  175 295  " fill-rule="nonzero" fill="#797979" stroke="none" />
</svg>