<?xml version="1.0" encoding="utf-8"?>
<svg version="1.1" xmlns:xlink="http://www.w3.org/1999/xlink" width="11px" height="8px" xmlns="http://www.w3.org/2000/svg">
  <g transform="matrix(1 0 0 1 -574 -30 )">
    <path d="M 10.7407407407408 5.97979797979797  C 10.9135802469136 6.10549943883279  11 6.2581369248036  11 6.43771043771044  C 11 6.61728395061728  10.9135802469136 6.76992143658808  10.7407407407408 6.89562289562291  L 9.48148148148141 7.81144781144781  C 9.30864197530863 7.93714927048259  9.09876543209874 8  8.85185185185184 8  C 8.60493827160498 8  8.39506172839504 7.93714927048259  8.22222222222222 7.81144781144781  L 5.5 5.83164983164984  L 2.77777777777778 7.81144781144781  C 2.60493827160496 7.93714927048259  2.39506172839507 8  2.14814814814816 8  C 1.90123456790116 8  1.69135802469137 7.93714927048259  1.51851851851859 7.81144781144781  L 0.259259259259243 6.89562289562291  C 0.0864197530864142 6.76992143658808  0 6.61728395061728  0 6.43771043771044  C 0 6.2581369248036  0.0864197530864142 6.10549943883279  0.259259259259243 5.97979797979797  L 2.98148148148151 4  L 0.259259259259243 2.02020202020203  C 0.0864197530864142 1.89450056116721  0 1.7418630751964  0 1.56228956228956  C 0 1.38271604938273  0.0864197530864142 1.23007856341192  0.259259259259243 1.10437710437709  L 1.51851851851859 0.188552188552194  C 1.69135802469137 0.0628507295174118  1.90123456790116 0  2.14814814814816 0  C 2.39506172839507 0  2.60493827160496 0.0628507295174118  2.77777777777778 0.188552188552194  L 5.5 2.16835016835016  L 8.22222222222222 0.188552188552194  C 8.39506172839504 0.0628507295174118  8.60493827160498 0  8.85185185185184 0  C 9.09876543209874 0  9.30864197530863 0.0628507295174118  9.48148148148141 0.188552188552194  L 10.7407407407408 1.10437710437709  C 10.9135802469136 1.23007856341192  11 1.38271604938273  11 1.56228956228956  C 11 1.7418630751964  10.9135802469136 1.89450056116721  10.7407407407408 2.02020202020203  L 8.01851851851849 4  L 10.7407407407408 5.97979797979797  Z " fill-rule="nonzero" fill="#1abc9c" stroke="none" transform="matrix(1 0 0 1 574 30 )" />
  </g>
</svg>