<?xml version="1.0" encoding="utf-8"?>
<svg version="1.1" xmlns:xlink="http://www.w3.org/1999/xlink" width="36px" height="36px" xmlns="http://www.w3.org/2000/svg">
  <g transform="matrix(1 0 0 1 -29 -220 )">
    <path d="M 47 220  C 57.08 220  65 227.92  65 238  C 65 248.08  57.08 256  47 256  C 36.92 256  29 248.08  29 238  C 29 227.92  36.92 220  47 220  Z " fill-rule="nonzero" fill="#ffffff" stroke="none" />
    <path d="M 47 220.5  C 56.8 220.5  64.5 228.2  64.5 238  C 64.5 247.8  56.8 255.5  47 255.5  C 37.2 255.5  29.5 247.8  29.5 238  C 29.5 228.2  37.2 220.5  47 220.5  Z " stroke-width="1" stroke="#d7d7d7" fill="none" />
  </g>
</svg>