<?xml version="1.0" encoding="utf-8"?>
<svg version="1.1" xmlns:xlink="http://www.w3.org/1999/xlink" width="12px" height="12px" viewBox="385 248  12 12" xmlns="http://www.w3.org/2000/svg">
  <path d="M 391 248  C 394.36 248  397 250.64  397 254  C 397 257.36  394.36 260  391 260  C 387.64 260  385 257.36  385 254  C 385 250.64  387.64 248  391 248  Z " fill-rule="nonzero" fill="#ffffff" stroke="none" />
  <path d="M 391 248.5  C 394.08 248.5  396.5 250.92  396.5 254  C 396.5 257.08  394.08 259.5  391 259.5  C 387.92 259.5  385.5 257.08  385.5 254  C 385.5 250.92  387.92 248.5  391 248.5  Z " stroke-width="1" stroke="#797979" fill="none" />
  <path d="M 391 257  C 389.32 257  388 255.68  388 254  C 388 252.32  389.32 251  391 251  C 392.68 251  394 252.32  394 254  C 394 255.68  392.68 257  391 257  " fill-rule="nonzero" fill="#797979" stroke="none" />
</svg>