<?xml version="1.0" encoding="utf-8"?>
<svg version="1.1" xmlns:xlink="http://www.w3.org/1999/xlink" width="12px" height="12px" viewBox="352 219  12 12" xmlns="http://www.w3.org/2000/svg">
  <path d="M 358 219  C 361.36 219  364 221.64  364 225  C 364 228.36  361.36 231  358 231  C 354.64 231  352 228.36  352 225  C 352 221.64  354.64 219  358 219  Z " fill-rule="nonzero" fill="#ffffff" stroke="none" />
  <path d="M 358 219.5  C 361.08 219.5  363.5 221.92  363.5 225  C 363.5 228.08  361.08 230.5  358 230.5  C 354.92 230.5  352.5 228.08  352.5 225  C 352.5 221.92  354.92 219.5  358 219.5  Z " stroke-width="1" stroke="#797979" fill="none" />
  <path d="M 358 228  C 356.32 228  355 226.68  355 225  C 355 223.32  356.32 222  358 222  C 359.68 222  361 223.32  361 225  C 361 226.68  359.68 228  358 228  " fill-rule="nonzero" fill="#797979" stroke="none" />
</svg>