<?xml version="1.0" encoding="utf-8"?>
<svg version="1.1" xmlns:xlink="http://www.w3.org/1999/xlink" width="12px" height="12px" viewBox="311 248  12 12" xmlns="http://www.w3.org/2000/svg">
  <path d="M 317 248  C 320.36 248  323 250.64  323 254  C 323 257.36  320.36 260  317 260  C 313.64 260  311 257.36  311 254  C 311 250.64  313.64 248  317 248  Z " fill-rule="nonzero" fill="#ffffff" stroke="none" />
  <path d="M 317 248.5  C 320.08 248.5  322.5 250.92  322.5 254  C 322.5 257.08  320.08 259.5  317 259.5  C 313.92 259.5  311.5 257.08  311.5 254  C 311.5 250.92  313.92 248.5  317 248.5  Z " stroke-width="1" stroke="#797979" fill="none" />
  <path d="M 317 257  C 315.32 257  314 255.68  314 254  C 314 252.32  315.32 251  317 251  C 318.68 251  320 252.32  320 254  C 320 255.68  318.68 257  317 257  " fill-rule="nonzero" fill="#797979" stroke="none" />
</svg>