<?xml version="1.0" encoding="utf-8"?>
<svg version="1.1" xmlns:xlink="http://www.w3.org/1999/xlink" width="17px" height="17px" xmlns="http://www.w3.org/2000/svg">
  <g transform="matrix(1 0 0 1 -98 -199 )">
    <path d="M 106.5 199  C 111.26 199  115 202.74  115 207.5  C 115 212.26  111.26 216  106.5 216  C 101.74 216  98 212.26  98 207.5  C 98 202.74  101.74 199  106.5 199  Z " fill-rule="nonzero" fill="#f59a23" stroke="none" />
    <path d="M 106.5 199.5  C 110.98 199.5  114.5 203.02  114.5 207.5  C 114.5 211.98  110.98 215.5  106.5 215.5  C 102.02 215.5  98.5 211.98  98.5 207.5  C 98.5 203.02  102.02 199.5  106.5 199.5  Z " stroke-width="1" stroke="#f59a23" fill="none" />
  </g>
</svg>