<?xml version="1.0" encoding="utf-8"?>
<svg version="1.1" xmlns:xlink="http://www.w3.org/1999/xlink" width="25px" height="25px" xmlns="http://www.w3.org/2000/svg">
  <g transform="matrix(1 0 0 1 -869 -662 )">
    <path d="M 881.5 662  C 888.5 662  894 667.5  894 674.5  C 894 681.5  888.5 687  881.5 687  C 874.5 687  869 681.5  869 674.5  C 869 667.5  874.5 662  881.5 662  Z " fill-rule="nonzero" fill="#ffffff" stroke="none" />
    <path d="M 881.5 662.5  C 888.22 662.5  893.5 667.78  893.5 674.5  C 893.5 681.22  888.22 686.5  881.5 686.5  C 874.78 686.5  869.5 681.22  869.5 674.5  C 869.5 667.78  874.78 662.5  881.5 662.5  Z " stroke-width="1" stroke="#797979" fill="none" />
  </g>
</svg>