<?xml version="1.0" encoding="utf-8"?>
<svg version="1.1" xmlns:xlink="http://www.w3.org/1999/xlink" width="19px" height="19px" xmlns="http://www.w3.org/2000/svg">
  <g transform="matrix(1 0 0 1 -142 -268 )">
    <path d="M 151.5 268  C 156.82 268  161 272.18  161 277.5  C 161 282.82  156.82 287  151.5 287  C 146.18 287  142 282.82  142 277.5  C 142 272.18  146.18 268  151.5 268  Z " fill-rule="nonzero" fill="#d7d7d7" stroke="none" />
    <path d="M 151.5 268.5  C 156.54 268.5  160.5 272.46  160.5 277.5  C 160.5 282.54  156.54 286.5  151.5 286.5  C 146.46 286.5  142.5 282.54  142.5 277.5  C 142.5 272.46  146.46 268.5  151.5 268.5  Z " stroke-width="1" stroke="#d7d7d7" fill="none" />
  </g>
</svg>