<?xml version="1.0" encoding="utf-8"?>
<svg version="1.1" xmlns:xlink="http://www.w3.org/1999/xlink" width="19px" height="19px" xmlns="http://www.w3.org/2000/svg">
  <g transform="matrix(1 0 0 1 -142 -172 )">
    <path d="M 151.5 172  C 156.82 172  161 176.18  161 181.5  C 161 186.82  156.82 191  151.5 191  C 146.18 191  142 186.82  142 181.5  C 142 176.18  146.18 172  151.5 172  Z " fill-rule="nonzero" fill="#1abc9c" stroke="none" />
    <path d="M 151.5 172.5  C 156.54 172.5  160.5 176.46  160.5 181.5  C 160.5 186.54  156.54 190.5  151.5 190.5  C 146.46 190.5  142.5 186.54  142.5 181.5  C 142.5 176.46  146.46 172.5  151.5 172.5  Z " stroke-width="1" stroke="#1abc9c" fill="none" />
  </g>
</svg>