<?xml version="1.0" encoding="utf-8"?>
<svg version="1.1" xmlns:xlink="http://www.w3.org/1999/xlink" width="57px" height="57px" xmlns="http://www.w3.org/2000/svg">
  <g transform="matrix(1 0 0 1 -29 -211 )">
    <path d="M 57.5 211  C 73.46 211  86 223.54  86 239.5  C 86 255.46  73.46 268  57.5 268  C 41.54 268  29 255.46  29 239.5  C 29 223.54  41.54 211  57.5 211  Z " fill-rule="nonzero" fill="#ffffff" stroke="none" />
    <path d="M 57.5 211.5  C 73.18 211.5  85.5 223.82  85.5 239.5  C 85.5 255.18  73.18 267.5  57.5 267.5  C 41.82 267.5  29.5 255.18  29.5 239.5  C 29.5 223.82  41.82 211.5  57.5 211.5  Z " stroke-width="1" stroke="#797979" fill="none" />
  </g>
</svg>