<?xml version="1.0" encoding="utf-8"?>
<svg version="1.1" xmlns:xlink="http://www.w3.org/1999/xlink" width="17px" height="17px" xmlns="http://www.w3.org/2000/svg">
  <g transform="matrix(1 0 0 1 -98 -325 )">
    <path d="M 106.5 325  C 111.26 325  115 328.74  115 333.5  C 115 338.26  111.26 342  106.5 342  C 101.74 342  98 338.26  98 333.5  C 98 328.74  101.74 325  106.5 325  Z " fill-rule="nonzero" fill="#f59a23" stroke="none" />
    <path d="M 106.5 325.5  C 110.98 325.5  114.5 329.02  114.5 333.5  C 114.5 337.98  110.98 341.5  106.5 341.5  C 102.02 341.5  98.5 337.98  98.5 333.5  C 98.5 329.02  102.02 325.5  106.5 325.5  Z " stroke-width="1" stroke="#f59a23" fill="none" />
  </g>
</svg>