<?xml version="1.0" encoding="utf-8"?>
<svg version="1.1" xmlns:xlink="http://www.w3.org/1999/xlink" width="57px" height="57px" xmlns="http://www.w3.org/2000/svg">
  <g transform="matrix(1 0 0 1 -293 -169 )">
    <path d="M 321.5 169  C 337.46 169  350 181.54  350 197.5  C 350 213.46  337.46 226  321.5 226  C 305.54 226  293 213.46  293 197.5  C 293 181.54  305.54 169  321.5 169  Z " fill-rule="nonzero" fill="#ffffff" stroke="none" />
    <path d="M 321.5 169.5  C 337.18 169.5  349.5 181.82  349.5 197.5  C 349.5 213.18  337.18 225.5  321.5 225.5  C 305.82 225.5  293.5 213.18  293.5 197.5  C 293.5 181.82  305.82 169.5  321.5 169.5  Z " stroke-width="1" stroke="#797979" fill="none" />
  </g>
</svg>