<?xml version="1.0" encoding="utf-8"?>
<svg version="1.1" xmlns:xlink="http://www.w3.org/1999/xlink" width="13px" height="13px" xmlns="http://www.w3.org/2000/svg">
  <g transform="matrix(1 0 0 1 -326 -234 )">
    <path d="M 12.9184775971379 13  C 12.918656056481 10.6053650094043  11.5942179093953 8.40708173537138  9.47711770534902 7.28808064257812  C 8.67075080265506 7.99572756835938  7.61712265721032 8.42474428808594  6.45923884145317 8.42474428808594  C 5.30135502569602 8.42474428808594  4.24680424842053 7.99572756835938  3.44043734572656 7.28808064257812  C 1.32369437565016 8.40733041073104  -0.000359143090712434 10.6055646247574  0 13  L 12.9184775971379 13  Z M 2.69219528352619 3.85041120800781  C 2.69219504115132 5.93119062115635  4.37845968938456 7.61828126275124  6.45923884145317 7.6193  C 8.53935936155664 7.61879078929846  10.2253602195317 5.93237714058928  10.2253602195317 3.85225654646639  C 10.2253602195317 3.85164143361796  10.2253600688709 3.85102632078244  10.2253597675494 3.85041120800781  C 10.2256672983218 3.83076219360798  10.2258210707695 3.81111107356395  10.2258210707695 3.79145965269772  C 10.2258210707695 1.71097893902335  8.53925822751777 0.0244160862914741  6.45877752553779 0.0244160862914741  C 4.37829682355782 0.0244160862914741  2.69173398030612 1.71097893902335  2.69173398030612 3.79145965269772  C 2.69173398030612 3.81111107356395  2.6918877527538 3.83076219360798  2.69219528352619 3.85041120800781  Z " fill-rule="nonzero" fill="#ec808d" stroke="none" transform="matrix(1 0 0 1 326 234 )" />
  </g>
</svg>