<?xml version="1.0" encoding="utf-8"?>
<svg version="1.1" xmlns:xlink="http://www.w3.org/1999/xlink" width="12px" height="12px" viewBox="411 260  12 12" xmlns="http://www.w3.org/2000/svg">
  <path d="M 417 260  C 420.36 260  423 262.64  423 266  C 423 269.36  420.36 272  417 272  C 413.64 272  411 269.36  411 266  C 411 262.64  413.64 260  417 260  Z " fill-rule="nonzero" fill="#ffffff" stroke="none" />
  <path d="M 417 260.5  C 420.08 260.5  422.5 262.92  422.5 266  C 422.5 269.08  420.08 271.5  417 271.5  C 413.92 271.5  411.5 269.08  411.5 266  C 411.5 262.92  413.92 260.5  417 260.5  Z " stroke-width="1" stroke="#797979" fill="none" />
  <path d="M 417 269  C 415.32 269  414 267.68  414 266  C 414 264.32  415.32 263  417 263  C 418.68 263  420 264.32  420 266  C 420 267.68  418.68 269  417 269  " fill-rule="nonzero" fill="#797979" stroke="none" />
</svg>