<?xml version="1.0" encoding="utf-8"?>
<svg version="1.1" xmlns:xlink="http://www.w3.org/1999/xlink" width="12px" height="12px" viewBox="411 218  12 12" xmlns="http://www.w3.org/2000/svg">
  <path d="M 417 218  C 420.36 218  423 220.64  423 224  C 423 227.36  420.36 230  417 230  C 413.64 230  411 227.36  411 224  C 411 220.64  413.64 218  417 218  Z " fill-rule="nonzero" fill="#ffffff" stroke="none" />
  <path d="M 417 218.5  C 420.08 218.5  422.5 220.92  422.5 224  C 422.5 227.08  420.08 229.5  417 229.5  C 413.92 229.5  411.5 227.08  411.5 224  C 411.5 220.92  413.92 218.5  417 218.5  Z " stroke-width="1" stroke="#797979" fill="none" />
  <path d="M 417 227  C 415.32 227  414 225.68  414 224  C 414 222.32  415.32 221  417 221  C 418.68 221  420 222.32  420 224  C 420 225.68  418.68 227  417 227  " fill-rule="nonzero" fill="#797979" stroke="none" />
</svg>