<?xml version="1.0" encoding="utf-8"?>
<svg version="1.1" xmlns:xlink="http://www.w3.org/1999/xlink" width="12px" height="12px" viewBox="270 217  12 12" xmlns="http://www.w3.org/2000/svg">
  <path d="M 276 217  C 279.36 217  282 219.64  282 223  C 282 226.36  279.36 229  276 229  C 272.64 229  270 226.36  270 223  C 270 219.64  272.64 217  276 217  Z " fill-rule="nonzero" fill="#ffffff" stroke="none" />
  <path d="M 276 217.5  C 279.08 217.5  281.5 219.92  281.5 223  C 281.5 226.08  279.08 228.5  276 228.5  C 272.92 228.5  270.5 226.08  270.5 223  C 270.5 219.92  272.92 217.5  276 217.5  Z " stroke-width="1" stroke="#797979" fill="none" />
  <path d="M 276 226  C 274.32 226  273 224.68  273 223  C 273 221.32  274.32 220  276 220  C 277.68 220  279 221.32  279 223  C 279 224.68  277.68 226  276 226  " fill-rule="nonzero" fill="#797979" stroke="none" />
</svg>