<?xml version="1.0" encoding="utf-8"?>
<svg version="1.1" xmlns:xlink="http://www.w3.org/1999/xlink" width="12px" height="12px" viewBox="311 176  12 12" xmlns="http://www.w3.org/2000/svg">
  <path d="M 317 176  C 320.36 176  323 178.64  323 182  C 323 185.36  320.36 188  317 188  C 313.64 188  311 185.36  311 182  C 311 178.64  313.64 176  317 176  Z " fill-rule="nonzero" fill="#ffffff" stroke="none" />
  <path d="M 317 176.5  C 320.08 176.5  322.5 178.92  322.5 182  C 322.5 185.08  320.08 187.5  317 187.5  C 313.92 187.5  311.5 185.08  311.5 182  C 311.5 178.92  313.92 176.5  317 176.5  Z " stroke-width="1" stroke="#797979" fill="none" />
  <path d="M 317 185  C 315.32 185  314 183.68  314 182  C 314 180.32  315.32 179  317 179  C 318.68 179  320 180.32  320 182  C 320 183.68  318.68 185  317 185  " fill-rule="nonzero" fill="#797979" stroke="none" />
</svg>