<?xml version="1.0" encoding="utf-8"?>
<svg version="1.1" xmlns:xlink="http://www.w3.org/1999/xlink" width="12px" height="12px" viewBox="385 176  12 12" xmlns="http://www.w3.org/2000/svg">
  <path d="M 391 176  C 394.36 176  397 178.64  397 182  C 397 185.36  394.36 188  391 188  C 387.64 188  385 185.36  385 182  C 385 178.64  387.64 176  391 176  Z " fill-rule="nonzero" fill="#ffffff" stroke="none" />
  <path d="M 391 176.5  C 394.08 176.5  396.5 178.92  396.5 182  C 396.5 185.08  394.08 187.5  391 187.5  C 387.92 187.5  385.5 185.08  385.5 182  C 385.5 178.92  387.92 176.5  391 176.5  Z " stroke-width="1" stroke="#797979" fill="none" />
  <path d="M 391 185  C 389.32 185  388 183.68  388 182  C 388 180.32  389.32 179  391 179  C 392.68 179  394 180.32  394 182  C 394 183.68  392.68 185  391 185  " fill-rule="nonzero" fill="#797979" stroke="none" />
</svg>