<?xml version="1.0" encoding="utf-8"?>
<svg version="1.1" xmlns:xlink="http://www.w3.org/1999/xlink" width="12px" height="12px" viewBox="223 246  12 12" xmlns="http://www.w3.org/2000/svg">
  <path d="M 229 246  C 232.36 246  235 248.64  235 252  C 235 255.36  232.36 258  229 258  C 225.64 258  223 255.36  223 252  C 223 248.64  225.64 246  229 246  Z " fill-rule="nonzero" fill="#ffffff" stroke="none" />
  <path d="M 229 246.5  C 232.08 246.5  234.5 248.92  234.5 252  C 234.5 255.08  232.08 257.5  229 257.5  C 225.92 257.5  223.5 255.08  223.5 252  C 223.5 248.92  225.92 246.5  229 246.5  Z " stroke-width="1" stroke="#797979" fill="none" />
  <path d="M 229 255  C 227.32 255  226 253.68  226 252  C 226 250.32  227.32 249  229 249  C 230.68 249  232 250.32  232 252  C 232 253.68  230.68 255  229 255  " fill-rule="nonzero" fill="#797979" stroke="none" />
</svg>