<?xml version="1.0" encoding="utf-8"?>
<svg version="1.1" xmlns:xlink="http://www.w3.org/1999/xlink" width="12px" height="12px" viewBox="385 246  12 12" xmlns="http://www.w3.org/2000/svg">
  <path d="M 391 246  C 394.36 246  397 248.64  397 252  C 397 255.36  394.36 258  391 258  C 387.64 258  385 255.36  385 252  C 385 248.64  387.64 246  391 246  Z " fill-rule="nonzero" fill="#ffffff" stroke="none" />
  <path d="M 391 246.5  C 394.08 246.5  396.5 248.92  396.5 252  C 396.5 255.08  394.08 257.5  391 257.5  C 387.92 257.5  385.5 255.08  385.5 252  C 385.5 248.92  387.92 246.5  391 246.5  Z " stroke-width="1" stroke="#797979" fill="none" />
  <path d="M 391 255  C 389.32 255  388 253.68  388 252  C 388 250.32  389.32 249  391 249  C 392.68 249  394 250.32  394 252  C 394 253.68  392.68 255  391 255  " fill-rule="nonzero" fill="#797979" stroke="none" />
</svg>