<?xml version="1.0" encoding="utf-8"?>
<svg version="1.1" xmlns:xlink="http://www.w3.org/1999/xlink" width="11px" height="11px" xmlns="http://www.w3.org/2000/svg">
  <g transform="matrix(1 0 0 1 -145 -211 )">
    <path d="M 150.5 211  C 153.58 211  156 213.42  156 216.5  C 156 219.58  153.58 222  150.5 222  C 147.42 222  145 219.58  145 216.5  C 145 213.42  147.42 211  150.5 211  Z " fill-rule="nonzero" fill="#c280ff" stroke="none" />
    <path d="M 150.5 211.5  C 153.3 211.5  155.5 213.7  155.5 216.5  C 155.5 219.3  153.3 221.5  150.5 221.5  C 147.7 221.5  145.5 219.3  145.5 216.5  C 145.5 213.7  147.7 211.5  150.5 211.5  Z " stroke-width="1" stroke="#c280ff" fill="none" />
  </g>
</svg>