<?xml version="1.0" encoding="utf-8"?>
<svg version="1.1" xmlns:xlink="http://www.w3.org/1999/xlink" width="11px" height="11px" xmlns="http://www.w3.org/2000/svg">
  <g transform="matrix(1 0 0 1 -159 -211 )">
    <path d="M 164.5 211  C 167.58 211  170 213.42  170 216.5  C 170 219.58  167.58 222  164.5 222  C 161.42 222  159 219.58  159 216.5  C 159 213.42  161.42 211  164.5 211  Z " fill-rule="nonzero" fill="#f59a23" stroke="none" />
    <path d="M 164.5 211.5  C 167.3 211.5  169.5 213.7  169.5 216.5  C 169.5 219.3  167.3 221.5  164.5 221.5  C 161.7 221.5  159.5 219.3  159.5 216.5  C 159.5 213.7  161.7 211.5  164.5 211.5  Z " stroke-width="1" stroke="#f59a23" fill="none" />
  </g>
</svg>