<?xml version="1.0" encoding="utf-8"?>
<svg version="1.1" xmlns:xlink="http://www.w3.org/1999/xlink" width="21px" height="21px" xmlns="http://www.w3.org/2000/svg">
  <g transform="matrix(1 0 0 1 -76 -263 )">
    <path d="M 86.5 263  C 92.38 263  97 267.62  97 273.5  C 97 279.38  92.38 284  86.5 284  C 80.62 284  76 279.38  76 273.5  C 76 267.62  80.62 263  86.5 263  Z " fill-rule="nonzero" fill="#ffffff" stroke="none" />
    <path d="M 86.5 263.5  C 92.1 263.5  96.5 267.9  96.5 273.5  C 96.5 279.1  92.1 283.5  86.5 283.5  C 80.9 283.5  76.5 279.1  76.5 273.5  C 76.5 267.9  80.9 263.5  86.5 263.5  Z " stroke-width="1" stroke="#797979" fill="none" />
  </g>
</svg>