<?xml version="1.0" encoding="utf-8"?>
<svg version="1.1" xmlns:xlink="http://www.w3.org/1999/xlink" width="12px" height="12px" viewBox="122 321  12 12" xmlns="http://www.w3.org/2000/svg">
  <path d="M 128 321  C 131.36 321  134 323.64  134 327  C 134 330.36  131.36 333  128 333  C 124.64 333  122 330.36  122 327  C 122 323.64  124.64 321  128 321  Z " fill-rule="nonzero" fill="#ffffff" stroke="none" />
  <path d="M 128 321.5  C 131.08 321.5  133.5 323.92  133.5 327  C 133.5 330.08  131.08 332.5  128 332.5  C 124.92 332.5  122.5 330.08  122.5 327  C 122.5 323.92  124.92 321.5  128 321.5  Z " stroke-width="1" stroke="#797979" fill="none" />
  <path d="M 128 330  C 126.32 330  125 328.68  125 327  C 125 325.32  126.32 324  128 324  C 129.68 324  131 325.32  131 327  C 131 328.68  129.68 330  128 330  " fill-rule="nonzero" fill="#797979" stroke="none" />
</svg>