<?xml version="1.0" encoding="utf-8"?>
<svg version="1.1" xmlns:xlink="http://www.w3.org/1999/xlink" width="12px" height="12px" viewBox="122 369  12 12" xmlns="http://www.w3.org/2000/svg">
  <path d="M 128 369  C 131.36 369  134 371.64  134 375  C 134 378.36  131.36 381  128 381  C 124.64 381  122 378.36  122 375  C 122 371.64  124.64 369  128 369  Z " fill-rule="nonzero" fill="#ffffff" stroke="none" />
  <path d="M 128 369.5  C 131.08 369.5  133.5 371.92  133.5 375  C 133.5 378.08  131.08 380.5  128 380.5  C 124.92 380.5  122.5 378.08  122.5 375  C 122.5 371.92  124.92 369.5  128 369.5  Z " stroke-width="1" stroke="#797979" fill="none" />
  <path d="M 128 378  C 126.32 378  125 376.68  125 375  C 125 373.32  126.32 372  128 372  C 129.68 372  131 373.32  131 375  C 131 376.68  129.68 378  128 378  " fill-rule="nonzero" fill="#797979" stroke="none" />
</svg>