<?xml version="1.0" encoding="utf-8"?>
<svg version="1.1" xmlns:xlink="http://www.w3.org/1999/xlink" width="12px" height="12px" viewBox="256 321  12 12" xmlns="http://www.w3.org/2000/svg">
  <path d="M 262 321  C 265.36 321  268 323.64  268 327  C 268 330.36  265.36 333  262 333  C 258.64 333  256 330.36  256 327  C 256 323.64  258.64 321  262 321  Z " fill-rule="nonzero" fill="#ffffff" stroke="none" />
  <path d="M 262 321.5  C 265.08 321.5  267.5 323.92  267.5 327  C 267.5 330.08  265.08 332.5  262 332.5  C 258.92 332.5  256.5 330.08  256.5 327  C 256.5 323.92  258.92 321.5  262 321.5  Z " stroke-width="1" stroke="#797979" fill="none" />
  <path d="M 262 330  C 260.32 330  259 328.68  259 327  C 259 325.32  260.32 324  262 324  C 263.68 324  265 325.32  265 327  C 265 328.68  263.68 330  262 330  " fill-rule="nonzero" fill="#797979" stroke="none" />
</svg>