<?xml version="1.0" encoding="utf-8"?>
<svg version="1.1" xmlns:xlink="http://www.w3.org/1999/xlink" width="12px" height="12px" viewBox="255 369  12 12" xmlns="http://www.w3.org/2000/svg">
  <path d="M 261 369  C 264.36 369  267 371.64  267 375  C 267 378.36  264.36 381  261 381  C 257.64 381  255 378.36  255 375  C 255 371.64  257.64 369  261 369  Z " fill-rule="nonzero" fill="#ffffff" stroke="none" />
  <path d="M 261 369.5  C 264.08 369.5  266.5 371.92  266.5 375  C 266.5 378.08  264.08 380.5  261 380.5  C 257.92 380.5  255.5 378.08  255.5 375  C 255.5 371.92  257.92 369.5  261 369.5  Z " stroke-width="1" stroke="#797979" fill="none" />
  <path d="M 261 378  C 259.32 378  258 376.68  258 375  C 258 373.32  259.32 372  261 372  C 262.68 372  264 373.32  264 375  C 264 376.68  262.68 378  261 378  " fill-rule="nonzero" fill="#797979" stroke="none" />
</svg>