<?xml version="1.0" encoding="utf-8"?>
<svg version="1.1" xmlns:xlink="http://www.w3.org/1999/xlink" width="67px" height="29px" xmlns="http://www.w3.org/2000/svg">
  <g transform="matrix(1 0 0 1 -385 -262 )">
    <path d="M 386 265  A 2 2 0 0 1 388 263 L 449 263  A 2 2 0 0 1 451 265 L 451 288  A 2 2 0 0 1 449 290 L 388 290  A 2 2 0 0 1 386 288 L 386 265  Z " fill-rule="nonzero" fill="#ffffff" stroke="none" />
    <path d="M 385.5 265  A 2.5 2.5 0 0 1 388 262.5 L 449 262.5  A 2.5 2.5 0 0 1 451.5 265 L 451.5 288  A 2.5 2.5 0 0 1 449 290.5 L 388 290.5  A 2.5 2.5 0 0 1 385.5 288 L 385.5 265  Z " stroke-width="1" stroke-dasharray="3,1" stroke="#d7d7d7" fill="none" stroke-dashoffset="0.5" />
  </g>
</svg>