<?xml version="1.0" encoding="utf-8"?>
<svg version="1.1" xmlns:xlink="http://www.w3.org/1999/xlink" width="67px" height="29px" xmlns="http://www.w3.org/2000/svg">
  <g transform="matrix(1 0 0 1 -385 -341 )">
    <path d="M 386 344  A 2 2 0 0 1 388 342 L 449 342  A 2 2 0 0 1 451 344 L 451 367  A 2 2 0 0 1 449 369 L 388 369  A 2 2 0 0 1 386 367 L 386 344  Z " fill-rule="nonzero" fill="#ffffff" stroke="none" />
    <path d="M 385.5 344  A 2.5 2.5 0 0 1 388 341.5 L 449 341.5  A 2.5 2.5 0 0 1 451.5 344 L 451.5 367  A 2.5 2.5 0 0 1 449 369.5 L 388 369.5  A 2.5 2.5 0 0 1 385.5 367 L 385.5 344  Z " stroke-width="1" stroke-dasharray="3,1" stroke="#d7d7d7" fill="none" stroke-dashoffset="0.5" />
  </g>
</svg>