<?xml version="1.0" encoding="utf-8"?>
<svg version="1.1" xmlns:xlink="http://www.w3.org/1999/xlink" width="67px" height="29px" xmlns="http://www.w3.org/2000/svg">
  <g transform="matrix(1 0 0 1 -663 -528 )">
    <path d="M 664 531  A 2 2 0 0 1 666 529 L 727 529  A 2 2 0 0 1 729 531 L 729 554  A 2 2 0 0 1 727 556 L 666 556  A 2 2 0 0 1 664 554 L 664 531  Z " fill-rule="nonzero" fill="#ffffff" stroke="none" />
    <path d="M 663.5 531  A 2.5 2.5 0 0 1 666 528.5 L 727 528.5  A 2.5 2.5 0 0 1 729.5 531 L 729.5 554  A 2.5 2.5 0 0 1 727 556.5 L 666 556.5  A 2.5 2.5 0 0 1 663.5 554 L 663.5 531  Z " stroke-width="1" stroke-dasharray="3,1" stroke="#d7d7d7" fill="none" stroke-dashoffset="0.5" />
  </g>
</svg>