<?xml version="1.0" encoding="utf-8"?>
<svg version="1.1" xmlns:xlink="http://www.w3.org/1999/xlink" width="30px" height="30px" xmlns="http://www.w3.org/2000/svg">
  <g transform="matrix(1 0 0 1 -488 -268 )">
    <path d="M 503 268  C 511.4 268  518 274.6  518 283  C 518 291.4  511.4 298  503 298  C 494.6 298  488 291.4  488 283  C 488 274.6  494.6 268  503 268  Z " fill-rule="nonzero" fill="#1abc9c" stroke="none" />
    <path d="M 503 268.5  C 511.12 268.5  517.5 274.88  517.5 283  C 517.5 291.12  511.12 297.5  503 297.5  C 494.88 297.5  488.5 291.12  488.5 283  C 488.5 274.88  494.88 268.5  503 268.5  Z " stroke-width="1" stroke="#1abc9c" fill="none" />
  </g>
</svg>