<?xml version="1.0" encoding="utf-8"?>
<svg version="1.1" xmlns:xlink="http://www.w3.org/1999/xlink" width="12px" height="12px" viewBox="275 186  12 12" xmlns="http://www.w3.org/2000/svg">
  <path d="M 281 186  C 284.36 186  287 188.64  287 192  C 287 195.36  284.36 198  281 198  C 277.64 198  275 195.36  275 192  C 275 188.64  277.64 186  281 186  Z " fill-rule="nonzero" fill="#ffffff" stroke="none" />
  <path d="M 281 186.5  C 284.08 186.5  286.5 188.92  286.5 192  C 286.5 195.08  284.08 197.5  281 197.5  C 277.92 197.5  275.5 195.08  275.5 192  C 275.5 188.92  277.92 186.5  281 186.5  Z " stroke-width="1" stroke="#797979" fill="none" />
  <path d="M 281 195  C 279.32 195  278 193.68  278 192  C 278 190.32  279.32 189  281 189  C 282.68 189  284 190.32  284 192  C 284 193.68  282.68 195  281 195  " fill-rule="nonzero" fill="#797979" stroke="none" />
</svg>