<?xml version="1.0" encoding="utf-8"?>
<svg version="1.1" xmlns:xlink="http://www.w3.org/1999/xlink" width="300px" height="201px" xmlns="http://www.w3.org/2000/svg">
  <g transform="matrix(1 0 0 1 -780 -60 )">
    <path d="M 781 65  A 4 4 0 0 1 785 61 L 1075 61  A 4 4 0 0 1 1079 65 L 1079 256  A 4 4 0 0 1 1075 260 L 785 260  A 4 4 0 0 1 781 256 L 781 65  Z " fill-rule="nonzero" fill="#ffffff" stroke="none" fill-opacity="0" />
    <path d="M 780.5 65  A 4.5 4.5 0 0 1 785 60.5 L 1075 60.5  A 4.5 4.5 0 0 1 1079.5 65 L 1079.5 256  A 4.5 4.5 0 0 1 1075 260.5 L 785 260.5  A 4.5 4.5 0 0 1 780.5 256 L 780.5 65  Z " stroke-width="1" stroke-dasharray="9,4" stroke="#cccccc" fill="none" stroke-dashoffset="0.5" />
  </g>
</svg>