<?xml version="1.0" encoding="utf-8"?>
<svg version="1.1" xmlns:xlink="http://www.w3.org/1999/xlink" width="12px" height="12px" xmlns="http://www.w3.org/2000/svg">
  <g transform="matrix(1 0 0 1 -821 -799 )">
    <path d="M 827 799  C 830.36 799  833 801.64  833 805  C 833 808.36  830.36 811  827 811  C 823.64 811  821 808.36  821 805  C 821 801.64  823.64 799  827 799  Z " fill-rule="nonzero" fill="#7800d7" stroke="none" />
    <path d="M 827 799.5  C 830.08 799.5  832.5 801.92  832.5 805  C 832.5 808.08  830.08 810.5  827 810.5  C 823.92 810.5  821.5 808.08  821.5 805  C 821.5 801.92  823.92 799.5  827 799.5  Z " stroke-width="1" stroke="#7800d7" fill="none" />
  </g>
</svg>