<?xml version="1.0" encoding="utf-8"?>
<svg version="1.1" xmlns:xlink="http://www.w3.org/1999/xlink" width="12px" height="12px" xmlns="http://www.w3.org/2000/svg">
  <g transform="matrix(1 0 0 1 -1039 -799 )">
    <path d="M 1045 799  C 1048.36 799  1051 801.64  1051 805  C 1051 808.36  1048.36 811  1045 811  C 1041.64 811  1039 808.36  1039 805  C 1039 801.64  1041.64 799  1045 799  Z " fill-rule="nonzero" fill="#c280ff" stroke="none" />
    <path d="M 1045 799.5  C 1048.08 799.5  1050.5 801.92  1050.5 805  C 1050.5 808.08  1048.08 810.5  1045 810.5  C 1041.92 810.5  1039.5 808.08  1039.5 805  C 1039.5 801.92  1041.92 799.5  1045 799.5  Z " stroke-width="1" stroke="#c280ff" fill="none" />
  </g>
</svg>