<?xml version="1.0" encoding="utf-8"?>
<svg version="1.1" xmlns:xlink="http://www.w3.org/1999/xlink" width="12px" height="12px" xmlns="http://www.w3.org/2000/svg">
  <g transform="matrix(1 0 0 1 -165 -799 )">
    <path d="M 171 799  C 174.36 799  177 801.64  177 805  C 177 808.36  174.36 811  171 811  C 167.64 811  165 808.36  165 805  C 165 801.64  167.64 799  171 799  Z " fill-rule="nonzero" fill="#f04844" stroke="none" />
    <path d="M 171 799.5  C 174.08 799.5  176.5 801.92  176.5 805  C 176.5 808.08  174.08 810.5  171 810.5  C 167.92 810.5  165.5 808.08  165.5 805  C 165.5 801.92  167.92 799.5  171 799.5  Z " stroke-width="1" stroke="#f04844" fill="none" />
  </g>
</svg>