<?xml version="1.0" encoding="utf-8"?>
<svg version="1.1" xmlns:xlink="http://www.w3.org/1999/xlink" width="12px" height="12px" xmlns="http://www.w3.org/2000/svg">
  <g transform="matrix(1 0 0 1 -602 -799 )">
    <path d="M 608 799  C 611.36 799  614 801.64  614 805  C 614 808.36  611.36 811  608 811  C 604.64 811  602 808.36  602 805  C 602 801.64  604.64 799  608 799  Z " fill-rule="nonzero" fill="#f59a23" stroke="none" />
    <path d="M 608 799.5  C 611.08 799.5  613.5 801.92  613.5 805  C 613.5 808.08  611.08 810.5  608 810.5  C 604.92 810.5  602.5 808.08  602.5 805  C 602.5 801.92  604.92 799.5  608 799.5  Z " stroke-width="1" stroke="#f59a23" fill="none" />
  </g>
</svg>