<?xml version="1.0" encoding="utf-8"?>
<svg version="1.1" xmlns:xlink="http://www.w3.org/1999/xlink" width="12px" height="12px" xmlns="http://www.w3.org/2000/svg">
  <g transform="matrix(1 0 0 1 -165 -900 )">
    <path d="M 171 900  C 174.36 900  177 902.64  177 906  C 177 909.36  174.36 912  171 912  C 167.64 912  165 909.36  165 906  C 165 902.64  167.64 900  171 900  Z " fill-rule="nonzero" fill="#1abc9c" stroke="none" />
    <path d="M 171 900.5  C 174.08 900.5  176.5 902.92  176.5 906  C 176.5 909.08  174.08 911.5  171 911.5  C 167.92 911.5  165.5 909.08  165.5 906  C 165.5 902.92  167.92 900.5  171 900.5  Z " stroke-width="1" stroke="#1abc9c" fill="none" />
  </g>
</svg>