<?xml version="1.0" encoding="utf-8"?>
<svg version="1.1" xmlns:xlink="http://www.w3.org/1999/xlink" width="12px" height="12px" viewBox="277 136  12 12" xmlns="http://www.w3.org/2000/svg">
  <path d="M 283 136  C 286.36 136  289 138.64  289 142  C 289 145.36  286.36 148  283 148  C 279.64 148  277 145.36  277 142  C 277 138.64  279.64 136  283 136  Z " fill-rule="nonzero" fill="#ffffff" stroke="none" />
  <path d="M 283 136.5  C 286.08 136.5  288.5 138.92  288.5 142  C 288.5 145.08  286.08 147.5  283 147.5  C 279.92 147.5  277.5 145.08  277.5 142  C 277.5 138.92  279.92 136.5  283 136.5  Z " stroke-width="1" stroke="#797979" fill="none" />
  <path d="M 283 145  C 281.32 145  280 143.68  280 142  C 280 140.32  281.32 139  283 139  C 284.68 139  286 140.32  286 142  C 286 143.68  284.68 145  283 145  " fill-rule="nonzero" fill="#797979" stroke="none" />
</svg>