<?xml version="1.0" encoding="utf-8"?>
<svg version="1.1" xmlns:xlink="http://www.w3.org/1999/xlink" width="90px" height="119px" xmlns="http://www.w3.org/2000/svg">
  <g transform="matrix(1 0 0 1 -581 -178 )">
    <path d="M 581 178  L 671 178  L 671 297  L 581 297  L 581 178  " fill-rule="nonzero" fill="#cccccc" stroke="none" />
    <path d="M 587 184  L 665 184  L 665 291  L 587 291  L 587 184  " fill-rule="nonzero" fill="#ffffff" stroke="none" />
    <path d="M 634.55 209.35  C 630.77 209.35  627.8 206.38  627.8 202.6  C 627.8 198.82  630.77 195.85  634.55 195.85  C 638.33 195.85  641.3 198.82  641.3 202.6  C 641.3 206.38  638.33 209.35  634.55 209.35  " fill-rule="nonzero" fill="#cccccc" stroke="none" />
    <path d="M 590 289  L 590 232.9  L 608.25 207.4  L 633.8 227.8  L 648.4 222.7  L 663 227.8  L 663 289  L 590 289  " fill-rule="nonzero" fill="#169bd5" stroke="none" />
  </g>
</svg>