<?xml version="1.0" encoding="utf-8"?>
<svg version="1.1" xmlns:xlink="http://www.w3.org/1999/xlink" width="133px" height="133px" xmlns="http://www.w3.org/2000/svg">
  <g transform="matrix(1 0 0 1 -292 -320 )">
    <path d="M 358.5 320  C 395.74 320  425 349.26  425 386.5  C 425 423.74  395.74 453  358.5 453  C 321.26 453  292 423.74  292 386.5  C 292 349.26  321.26 320  358.5 320  Z " fill-rule="nonzero" fill="#1abc9c" stroke="none" fill-opacity="0.368627450980392" />
    <path d="M 358.5 320.5  C 395.46 320.5  424.5 349.54  424.5 386.5  C 424.5 423.46  395.46 452.5  358.5 452.5  C 321.54 452.5  292.5 423.46  292.5 386.5  C 292.5 349.54  321.54 320.5  358.5 320.5  Z " stroke-width="1" stroke="#1abc9c" fill="none" />
  </g>
</svg>