<?xml version="1.0" encoding="utf-8"?>
<svg version="1.1" xmlns:xlink="http://www.w3.org/1999/xlink" width="60px" height="60px" xmlns="http://www.w3.org/2000/svg">
  <g transform="matrix(1 0 0 1 -30 -250 )">
    <path d="M 60 250  C 76.8 250  90 263.2  90 280  C 90 296.8  76.8 310  60 310  C 43.2 310  30 296.8  30 280  C 30 263.2  43.2 250  60 250  Z " fill-rule="nonzero" fill="#ffffff" stroke="none" />
    <path d="M 60 250.5  C 76.52 250.5  89.5 263.48  89.5 280  C 89.5 296.52  76.52 309.5  60 309.5  C 43.48 309.5  30.5 296.52  30.5 280  C 30.5 263.48  43.48 250.5  60 250.5  Z " stroke-width="1" stroke="#797979" fill="none" />
  </g>
</svg>