<?xml version="1.0" encoding="utf-8"?>
<svg version="1.1" xmlns:xlink="http://www.w3.org/1999/xlink" width="14px" height="14px" xmlns="http://www.w3.org/2000/svg">
  <g transform="matrix(1 0 0 1 -105 -324 )">
    <path d="M 112 324  C 115.92 324  119 327.08  119 331  C 119 334.92  115.92 338  112 338  C 108.08 338  105 334.92  105 331  C 105 327.08  108.08 324  112 324  Z " fill-rule="nonzero" fill="#1abc9c" stroke="none" />
    <path d="M 112 324.5  C 115.64 324.5  118.5 327.36  118.5 331  C 118.5 334.64  115.64 337.5  112 337.5  C 108.36 337.5  105.5 334.64  105.5 331  C 105.5 327.36  108.36 324.5  112 324.5  Z " stroke-width="1" stroke="#1abc9c" fill="none" />
  </g>
</svg>