<?xml version="1.0" encoding="utf-8"?>
<svg version="1.1" xmlns:xlink="http://www.w3.org/1999/xlink" width="31px" height="31px" xmlns="http://www.w3.org/2000/svg">
  <g transform="matrix(1 0 0 1 -31 -236 )">
    <path d="M 46.5 236  C 55.18 236  62 242.82  62 251.5  C 62 260.18  55.18 267  46.5 267  C 37.82 267  31 260.18  31 251.5  C 31 242.82  37.82 236  46.5 236  Z " fill-rule="nonzero" fill="#ffffff" stroke="none" />
    <path d="M 46.5 236.5  C 54.9 236.5  61.5 243.1  61.5 251.5  C 61.5 259.9  54.9 266.5  46.5 266.5  C 38.1 266.5  31.5 259.9  31.5 251.5  C 31.5 243.1  38.1 236.5  46.5 236.5  Z " stroke-width="1" stroke="#797979" fill="none" />
  </g>
</svg>