<?xml version="1.0" encoding="utf-8"?>
<svg version="1.1" xmlns:xlink="http://www.w3.org/1999/xlink" width="11px" height="11px" xmlns="http://www.w3.org/2000/svg">
  <g transform="matrix(1 0 0 1 -786 -435 )">
    <path d="M 10.6528013053514 2.40601293034565  C 11.1156462608629 1.94340674488139  11.1157726905279 1.19027921109522  10.6529417827569 0.727195402409447  L 10.2735544538294 0.347934469089277  C 10.049366562455 0.123507745971934  9.75128755580817 0  9.43408957427805 0  C 9.116399921829 0.0001264296762713  8.81808210359284 0.123872987258945  8.59378183029403 0.348538521987026  L 1.03651884873095 7.91963920787319  C 0.990429120175669 7.96572904005397  0.954292206757351 8.02079026422653  0.930346025683789 8.08141300252882  L 0.0336085079262176 10.3456280270691  C -0.0364616219175673 10.5226998125533  0.00503540365551203 10.7244113371678  0.139416089719077 10.8591572765858  C 0.229142636766539 10.9493717386784  0.351150116348784 11.0000657751532  0.478388069095523 10.9999999359483  C 0.536981194913153 10.9999999359483  0.596037896168681 10.9892393657237  0.652706481531524 10.9670017904423  L 2.9242261278292 10.077681399832  C 2.98561382099409 10.0536213477885  3.0413756465169 10.0171513889872  3.08802278259618 9.97055332080766  L 10.6528013053514 2.40601293034565  Z M 2.43807597075175 9.24071694293839  L 1.32778470121293 9.67545240865657  L 1.76611634947156 8.56875726131626  L 2.43807597075175 9.24071694293839  Z M 9.97643069353977 1.40346774076654  C 10.0663502807752 1.49337328833481  10.0663502807752 1.63972266248585  9.97643069353977 1.72962821005413  L 3.37234905124841 8.33345758603986  L 2.67301038364401 7.63411885563476  L 9.27075649494912 1.02431918938087  C 9.32958843235603 0.965248435080131  9.39821164492344 0.956524787417607  9.43396314461327 0.956524787417607  C 9.46958821463807 0.956524787417607  9.53822547494607 0.965248435080131  9.59716979427726 1.0242068074464  L 9.97643069353977 1.40346774076654  Z " fill-rule="nonzero" fill="#1abc9c" stroke="none" transform="matrix(1 0 0 1 786 435 )" />
  </g>
</svg>