<?xml version="1.0" encoding="utf-8"?>
<svg version="1.1" xmlns:xlink="http://www.w3.org/1999/xlink" width="14px" height="15px" xmlns="http://www.w3.org/2000/svg">
  <g transform="matrix(1 0 0 1 -782 -435 )">
    <path d="M 14 7.96874805447069  C 14 7.58043596458822  13.7061842994064 7.26563375488196  13.3437447794909 7.26563375488196  C 12.9813052595754 7.26563375488196  12.6874895589817 7.58043596458822  12.6874895589817 7.96876361870531  L 12.6874895589817 13.593755836588  L 1.31249591438408 13.593755836588  L 1.31249591438408 1.40625972764666  L 6.56249409855485 1.40625972764666  C 6.92493361847035 1.40625972764666  7.21874931906407 1.09145751794036  7.21874931906407 0.703129863823307  C 7.21874931906407 0.314802209706258  6.92493361847035 0  6.56249409855485 0  L 0.823529411764711 0  C 0.368729552465574 1.55642346157947E-05  0 0.305308026579581  0 0.681837990844045  L 0 14.3181775733905  C 0 14.694707537655  0.368729552465574 15  0.823529411764711 15  L 13.1764705882353 15  C 13.6312704475344 15  14 14.694707537655  14 14.3181775733905  L 14 7.96874805447069  Z " fill-rule="nonzero" fill="#1abc9c" stroke="none" transform="matrix(1 0 0 1 782 435 )" />
  </g>
</svg>