<?xml version="1.0" encoding="utf-8"?>
<svg version="1.1" xmlns:xlink="http://www.w3.org/1999/xlink" width="23px" height="25px" xmlns="http://www.w3.org/2000/svg">
  <g transform="matrix(1 0 0 1 -513 -148 )">
    <path d="M 19.4068108601083 6.6344332173734  L 19 6.6344332173734  L 19 22.0274464384199  C 19.4422150195507 22.8346541973299  19.0703394906058 23.2666822190539  18.1664167409362 23  L 5.05310361917656 23  C 4.14978793018691 23.2350431695922  3.7524124755567 22.8663954505446  4 22.0593237142302  L 4 6.6344332173734  L 2 6.6344332173734  L 2 22.0651752319404  C 1.72049289748101 23.6838093044486  3.18959046166843 25  4.99531116052851 25  L 18.0888921672206 25  C 19.8944609247128 25  21.3643174909481 23.6838093044486  21 22.0651752319404  L 21 6.6344332173734  L 19.4068108601083 6.6344332173734  Z M 6.491957832592 9.93708901540721  L 6.491957832592 20.8641106849563  C 6.491957832592 20.9352137223885  6.50322792351247 21.0039014523927  6.52368106996922 21.0695611782765  C 7.1234250418313 21.0690168941691  7.723131013668 21.0678261498765  8.3228749561637 21.0659550988809  C 8.34260712996412 21.0015199361325  8.35357366117824 20.9338529429326  8.35357366117824 20.8639744963107  L 8.35357366117824 9.94174984417484  C 7.73307298315321 9.9394704486425  7.11245851061703 9.93804158870134  6.491957832592 9.93708901540721  Z M 14.7109353459641 9.97655294802776  L 14.7109353459641 20.8641106849563  C 14.7109353459641 20.9209931204371  14.7181831312862 20.9762767161634  14.7315402869571 21.0298251451148  C 15.3379248659959 21.0274096439618  15.9444992102296 21.0257086281295  16.5511873489748 21.0246200599148  C 16.5636337961606 20.9726704707178  16.5704641685325 20.9189858807959  16.5704641685325 20.8639744963107  L 16.5704641685325 9.98107769884975  C 15.9505705511874 9.98029521606888  15.3306770806738 9.9788323158851  14.7109353459641 9.97655294802776  Z M 23 3.6766446802271  L 17.4951057418051 3.6766446802271  L 17.4951057418051 1.83779503461501  C 17.5284606309575 0.357080650872703  16.1680038465495 0  14.8099377159645 0  L 8.27559367448748 0  C 6.58906284430425 0  5.62719575335154 0.568791089464895  5.62719575335154 1.78690013944014  L 5.62006182127337 3.67650860228146  L 0 3.67650860228146  L 0 5.47283246463479  L 23 5.47283246463479  L 23 3.6766446802271  Z M 15.6348180346541 3.6766446802271  L 7.44995438311615 3.6766446802271  L 7.44995438311615 2.39076651632402  C 7.44995438311615 1.98330129716616  7.77041232471074 1.62809178031402  8.22592173898782 1.62809178031402  L 14.7739264958422 1.65983306120367  C 15.2286769961705 1.65983306120367  15.6290501653038 1.95261468262359  15.6290501653038 2.36018196715946  L 15.6348180346541 3.6766446802271  Z M 10.6669421874907 9.97777767721303  L 11 9.97777767721303  L 11 20.8651652406034  C 10.6669421874907 20.9220478421341  10.6742279141049 20.977467460456  10.6874333046061 21.0308798668118  C 11.2884674272446 21.0284983505516  11.8895394911756 21.0268993724221  12.490763349643 21.0258448167751  C 12.5030580022926 20.9738612150105  12.5098883746644 20.9201766250886  12.5098883746644 20.8650292180078  L 12.5098883746644 9.98226841546739  C 11.8956109202322 9.98134985474088  11.2812196419227 9.98002306017767  10.6669421874907 9.97777767721303  Z " fill-rule="nonzero" fill="#d9001b" stroke="none" transform="matrix(1 0 0 1 513 148 )" />
  </g>
</svg>