<?xml version="1.0" encoding="utf-8"?>
<svg version="1.1" xmlns:xlink="http://www.w3.org/1999/xlink" width="15px" height="15px" xmlns="http://www.w3.org/2000/svg">
  <g transform="matrix(1 0 0 1 -782 -457 )">
    <path d="M 12.6566157783315 3.98065993042404  L 12.679705447533 13.2164678630519  C 12.679705447533 13.7007925183979  12.437177928656 13.9600093314324  11.8476630919149 13.9600093314324  L 3.29550236033254 13.9410259017553  C 2.7063834327306 13.9410259017553  2.44722552753698 13.7198372703267  2.44722552753698 13.2355942285381  L 2.44722552753698 3.98065993042404  L 1.1220605853137 3.98065993042404  L 1.1220605853137 13.2391051391643  C 1.1220605853137 14.2102855826691  2.08016769239245 15  3.25781162643164 15  L 11.7971035873178 15  C 12.9746484291605 15  13.9332505375748 14.2102855826691  13.9332505375748 13.2391051391643  L 13.9332505375748 3.98065993042404  L 12.6566157783315 3.98065993042404  Z M 4.23388554299478 5.96225340924433  L 4.23388554299478 12.5184664109738  C 4.23388554299478 12.5611282334331  4.24123560229074 12.6023408714356  4.25457461084949 12.6417367069659  C 4.64571198380302 12.6414101365014  5.03682457413131 12.6406956899259  5.42796192793285 12.6395730593285  C 5.44083073693312 12.6009119616795  5.44798282250755 12.5603117657596  5.44798282250755 12.5183846977864  L 5.44798282250755 5.9650499065049  C 5.04330846727383 5.9636822691855  4.6385598982285 5.9628249532208  4.23388554299478 5.96225340924433  Z M 9.59408826910702 5.98593176881666  L 9.59408826910702 12.5184664109738  C 9.59408826910702 12.5525958722622  9.59881508562142 12.5857660296981  9.60752627410244 12.6178950870689  C 10.0029944778234 12.6164457863771  10.3985864414541 12.6154251768777  10.7942526188966 12.6147720359489  C 10.8023698670612 12.5836022824307  10.8068244577386 12.5513915284775  10.8068244577386 12.5183846977864  L 10.8068244577386 5.98864661930985  C 10.402546011644 5.98817712964133  9.99826766130901 5.98729938953106  9.59408826910702 5.98593176881666  Z M 15 2.20598680813626  L 11.4098515707424 2.20598680813626  L 11.4098515707424 1.10267702076901  C 11.4316047593201 0.214248390523622  10.5443503347062 0  9.65865503215074 0  L 5.39712630944836 0  C 4.29721489845929 0  3.66991027392492 0.341274653678937  3.66991027392492 1.07214008366408  L 3.66525770952611 2.20590516136888  L 0 2.20590516136888  L 0 3.28369947878087  L 15 3.28369947878087  L 15 2.20598680813626  Z M 10.1966204573831 2.20598680813626  L 4.85866590203227 2.20598680813626  L 4.85866590203227 1.43445990979441  C 4.85866590203227 1.1899807782997  5.06766021176788 0.976855068188414  5.3647315689051 0.976855068188414  L 9.63516945381013 0.995899836722202  C 9.93174586706771 0.995899836722202  10.192858803459 1.17156880957415  10.192858803459 1.41610918029568  L 10.1966204573831 2.20598680813626  Z M 6.95670142662435 5.98666660632782  L 6.95670142662435 12.5190991443621  C 6.95670142662435 12.5532287052805  6.96145298745973 12.5864804762736  6.97006519865616 12.6185279200871  C 7.36204397428997 12.617099010331  7.75404749424494 12.6161396234533  8.14615001063677 12.6155068900651  C 8.15416826236472 12.5843167290063  8.15862285304199 12.5521059750532  8.15862285304199 12.5190175308047  L 8.15862285304199 5.98936104928043  C 7.75800712189058 5.98880991284453  7.35731715777566 5.9880138361066  6.95670142662435 5.98666660632782  Z " fill-rule="nonzero" fill="#1abc9c" stroke="none" transform="matrix(1 0 0 1 782 457 )" />
  </g>
</svg>