<?xml version="1.0" encoding="utf-8"?>
<svg version="1.1" xmlns:xlink="http://www.w3.org/1999/xlink" width="50px" height="23px" xmlns="http://www.w3.org/2000/svg">
  <g transform="matrix(1 0 0 1 -215 -135 )">
    <path d="M 11.8243547328013 0  C 5.29397936604721 0  0 5.14874188783442  0 11.5000273130313  C 0 17.851312791678  5.29397936604721 22.9999999465497  11.8243547328013 22.9999999465497  C 12.0941292043108 22.9999999465497  12.361654108015 22.9904828784964  12.6269295538288 23  L 37.3730704461712 23  C 37.6383458370276 22.9904828784964  37.9058707956892 23  38.1756452671987 23  C 44.7060768552868 23  50 17.8513128451281  50 11.5000273664814  C 50 5.14874188783442  44.7060768552868 0  38.1756452671987 0  C 37.9055333577706 0  37.637839735107 0.00962653397897072  37.3722269063319 0  L 12.6277730936681 0  C 12.362160264893 0.00962648052871204  12.0944103659381 0  11.8243547328013 0  Z M 37.2283696474165 21.3452855426011  C 31.637677712147 21.3452855426011  27.105500499451 16.9374540439018  27.105500499451 11.5000273130313  C 27.105500499451 6.06260058216054  31.637677712147 1.65476908346125  37.2283696474165 1.65476908346125  C 42.8190615826861 1.65476908346125  47.3512387953821 6.06260058216054  47.3512387953821 11.5000273130313  C 47.3512387953821 16.9374540439018  42.8190615826861 21.3452855426011  37.2283696474165 21.3452855426011  Z " fill-rule="nonzero" fill="#1abc9c" stroke="none" transform="matrix(1 0 0 1 215 135 )" />
  </g>
</svg>