<?xml version="1.0" encoding="utf-8"?>
<svg version="1.1" xmlns:xlink="http://www.w3.org/1999/xlink" width="12px" height="12px" viewBox="318 226  12 12" xmlns="http://www.w3.org/2000/svg">
  <path d="M 324 226  C 327.36 226  330 228.64  330 232  C 330 235.36  327.36 238  324 238  C 320.64 238  318 235.36  318 232  C 318 228.64  320.64 226  324 226  Z " fill-rule="nonzero" fill="#ffffff" stroke="none" />
  <path d="M 324 226.5  C 327.08 226.5  329.5 228.92  329.5 232  C 329.5 235.08  327.08 237.5  324 237.5  C 320.92 237.5  318.5 235.08  318.5 232  C 318.5 228.92  320.92 226.5  324 226.5  Z " stroke-width="1" stroke="#797979" fill="none" />
  <path d="M 324 235  C 322.32 235  321 233.68  321 232  C 321 230.32  322.32 229  324 229  C 325.68 229  327 230.32  327 232  C 327 233.68  325.68 235  324 235  " fill-rule="nonzero" fill="#797979" stroke="none" />
</svg>