<?xml version="1.0" encoding="utf-8"?>
<svg version="1.1" xmlns:xlink="http://www.w3.org/1999/xlink" width="18px" height="18px" xmlns="http://www.w3.org/2000/svg">
  <g transform="matrix(1 0 0 1 -479 -80 )">
    <path d="M 488 80  C 493.04 80  497 83.96  497 89  C 497 94.04  493.04 98  488 98  C 482.96 98  479 94.04  479 89  C 479 83.96  482.96 80  488 80  Z " fill-rule="nonzero" fill="#1abc9c" stroke="none" />
    <path d="M 488 80.5  C 492.76 80.5  496.5 84.24  496.5 89  C 496.5 93.76  492.76 97.5  488 97.5  C 483.24 97.5  479.5 93.76  479.5 89  C 479.5 84.24  483.24 80.5  488 80.5  Z " stroke-width="1" stroke="#1abc9c" fill="none" />
  </g>
</svg>