<?xml version="1.0" encoding="utf-8"?>
<svg version="1.1" xmlns:xlink="http://www.w3.org/1999/xlink" width="12px" height="12px" xmlns="http://www.w3.org/2000/svg">
  <g transform="matrix(1 0 0 1 -314 -277 )">
    <path d="M 320 277  C 323.36 277  326 279.64  326 283  C 326 286.36  323.36 289  320 289  C 316.64 289  314 286.36  314 283  C 314 279.64  316.64 277  320 277  Z " fill-rule="nonzero" fill="#ffffff" stroke="none" />
    <path d="M 320 277.5  C 323.08 277.5  325.5 279.92  325.5 283  C 325.5 286.08  323.08 288.5  320 288.5  C 316.92 288.5  314.5 286.08  314.5 283  C 314.5 279.92  316.92 277.5  320 277.5  Z " stroke-width="1" stroke="#797979" fill="none" />
  </g>
</svg>