<?xml version="1.0" encoding="utf-8"?>
<svg version="1.1" xmlns:xlink="http://www.w3.org/1999/xlink" width="291px" height="262px" xmlns="http://www.w3.org/2000/svg">
  <defs>
    <mask fill="white" id="clip3">
      <path d="M 0 257  L 0 5  C 0 2.19999999999999  2.19999999999999 0  5 0  L 34.2949907235625 0  L 286 0  C 288.8 0  291 2.19999999999999  291 5  L 291 257  C 291 259.8  288.8 262  286 262  L 5 262  C 2.19999999999999 262  0 259.8  0 257  Z " fill-rule="evenodd" />
    </mask>
  </defs>
  <g transform="matrix(1 0 0 1 -285 -479 )">
    <path d="M 0 257  L 0 5  C 0 2.19999999999999  2.19999999999999 0  5 0  L 34.2949907235625 0  L 286 0  C 288.8 0  291 2.19999999999999  291 5  L 291 257  C 291 259.8  288.8 262  286 262  L 5 262  C 2.19999999999999 262  0 259.8  0 257  Z " fill-rule="nonzero" fill="#ffffff" stroke="none" transform="matrix(1 0 0 1 285 479 )" />
    <path d="M 0 257  L 0 5  C 0 2.19999999999999  2.19999999999999 0  5 0  L 34.2949907235625 0  L 286 0  C 288.8 0  291 2.19999999999999  291 5  L 291 257  C 291 259.8  288.8 262  286 262  L 5 262  C 2.19999999999999 262  0 259.8  0 257  Z " stroke-width="2" stroke="#797979" fill="none" transform="matrix(1 0 0 1 285 479 )" mask="url(#clip3)" />
  </g>
</svg>