<?xml version="1.0" encoding="utf-8"?>
<svg version="1.1" xmlns:xlink="http://www.w3.org/1999/xlink" width="17px" height="17px" xmlns="http://www.w3.org/2000/svg">
  <g transform="matrix(1 0 0 1 -400 -234 )">
    <path d="M 408.5 234  C 413.26 234  417 237.74  417 242.5  C 417 247.26  413.26 251  408.5 251  C 403.74 251  400 247.26  400 242.5  C 400 237.74  403.74 234  408.5 234  Z " fill-rule="nonzero" fill="#1abc9c" stroke="none" />
    <path d="M 408.5 234.5  C 412.98 234.5  416.5 238.02  416.5 242.5  C 416.5 246.98  412.98 250.5  408.5 250.5  C 404.02 250.5  400.5 246.98  400.5 242.5  C 400.5 238.02  404.02 234.5  408.5 234.5  Z " stroke-width="1" stroke="#1abc9c" fill="none" />
  </g>
</svg>