<?xml version="1.0" encoding="utf-8"?>
<svg version="1.1" xmlns:xlink="http://www.w3.org/1999/xlink" width="18px" height="10px" xmlns="http://www.w3.org/2000/svg">
  <g transform="matrix(1 0 0 1 -368 -201 )">
    <path d="M 17.6660156250001 0.329861111111095  C 17.888671875 0.549768518518524  18 0.81018518518519  18 1.1111111111111  C 18 1.41203703703705  17.888671875 1.67245370370371  17.6660156250001 1.8923611111111  L 9.791015625 9.67013888888891  C 9.56835937499993 9.89004629629629  9.30468749999993 10  9 10  C 8.69531250000007 10  8.43164062500007 9.89004629629629  8.208984375 9.67013888888891  L 0.333984374999926 1.8923611111111  C 0.111328125000038 1.67245370370371  0 1.41203703703705  0 1.1111111111111  C 0 0.81018518518519  0.111328125000038 0.549768518518524  0.333984374999926 0.329861111111095  C 0.556640625000002 0.109953703703714  0.820312500000003 0  1.12499999999993 0  L 16.8750000000001 0  C 17.1796875 0  17.443359375 0.109953703703714  17.6660156250001 0.329861111111095  Z " fill-rule="nonzero" fill="#cccccc" stroke="none" transform="matrix(1 0 0 1 368 201 )" />
  </g>
</svg>