<?xml version="1.0" encoding="utf-8"?>
<svg version="1.1" xmlns:xlink="http://www.w3.org/1999/xlink" width="10px" height="6px" xmlns="http://www.w3.org/2000/svg">
  <g transform="matrix(1 0 0 1 -216 -156 )">
    <path d="M 9.81445312500004 0.197916666666657  C 9.93815104166664 0.329861111111114  10 0.486111111111114  10 0.666666666666657  C 10 0.847222222222229  9.93815104166664 1.00347222222223  9.81445312500004 1.13541666666666  L 5.439453125 5.80208333333334  C 5.31575520833329 5.93402777777777  5.16927083333329 6  5 6  C 4.83072916666671 6  4.68424479166671 5.93402777777777  4.560546875 5.80208333333334  L 0.185546874999959 1.13541666666666  C 0.0618489583333547 1.00347222222223  0 0.847222222222229  0 0.666666666666657  C 0 0.486111111111114  0.0618489583333547 0.329861111111114  0.185546874999959 0.197916666666657  C 0.309244791666668 0.0659722222222285  0.455729166666669 0  0.62499999999996 0  L 9.37500000000004 0  C 9.54427083333333 0  9.69075520833333 0.0659722222222285  9.81445312500004 0.197916666666657  Z " fill-rule="nonzero" fill="#cccccc" stroke="none" transform="matrix(1 0 0 1 216 156 )" />
  </g>
</svg>